<?xml version="1.0" encoding="utf-8"?>
<!-- Generator: Adobe Illustrator 19.0.0, SVG Export Plug-In . SVG Version: 6.00 Build 0)  -->
<svg version="1.1" id="Layer_1" xmlns="http://www.w3.org/2000/svg" xmlns:xlink="http://www.w3.org/1999/xlink" x="0px" y="0px"
	 viewBox="0 0 595.3 841.9" style="enable-background:new 0 0 595.3 841.9;" xml:space="preserve">
<style type="text/css">
	.st0{fill:#B70F1D;}
</style>
<g>
	<path d="M-188,341.8c0.5-0.5,1-0.5,1-0.5c0.5,0,1,0,1.5,0.5c1,0.5,2.5,1,2.5,1c2.5,1,2.5,1,4.6,1c15.2-2,45.6-4.1,62.8-4.1
		c12.2,0,21.3,0.5,31.9,2c5.1,1,8.6,1,13.7,1c5.1,0,7.6-1.5,10.6-6.6c0.5-1,0.5-1.5,1.5-1.5c1.5-0.5,2.5,0.5,2.5,2
		c0,0.5-0.5,1.5-0.5,2.5c-3,7.6-5.6,11.1-9.1,14.2c-2.5,2.5-5.6,4.1-8.1,4.1c-2,0.5-2.5,0.5-11.1-4.1c-4.6-2-13.2-3.5-23.8-4.1
		c0,6.1,0,10.6,0,13.2c0,9.6-0.5,14.2-2,19.3c-2,7.1-8.6,11.7-16.7,11.1c-7.1-0.5-15.2-4.1-21.8-9.6c-4.1-3.5-6.6-6.6-10.1-12.7
		c0-0.5,0-1,0-1c0-1,1-1.5,2-1.5c0.5,0,1,0.5,1.5,0.5c5.1,6.1,12.7,10.1,19.3,10.1c5.6,0,8.1-2,9.1-6.1c0.5-2.5,1-7.6,1-11.1
		c0-4.6,0-5.6-0.5-12.2c-34.5,0-55.7,4.6-64.9,12.7c-0.5,0-1,0.5-1,0.5s-0.5,0-1,0c-1.5-2-2-3-2-5.6
		C-194.1,350.9-192.6,346.9-188,341.8z"/>
	<path d="M-182.4,266.8c0-9.6,3-17.7,7.1-18.2c1.5-0.5,2,0,5.1,2.5l2,2c1.5,1,1.5,1,3.5,1c11.7-1,15.7-1.5,33.4-2.5
		c0.5-1.5,1-2,1-3.5c0-2-0.5-6.1-1-9.6c6.6-1,9.6-1,12.7-1c2,0,4.6,0.5,10.1,1.5v12.2c10.1,0.5,10.1,0.5,18.2,0.5
		c5.6,0,13.7-0.5,19.3-1.5c6.6-1,8.6-2.5,11.7-8.1c0.5,0,0.5-0.5,1-0.5c1-0.5,2.5,0.5,2.5,1.5c0,0.5,0,1,0,1.5
		c-0.5,4.1-1,4.6-4.1,9.1c-2.5,3.5-2.5,3.5-5.6,8.6c-1.5,2.5-3.5,4.1-5.1,4.1c-1.5,0-3.5-0.5-6.6-1.5c-6.6-2.5-22.8-4.6-36-4.6
		c-23.8,0-47.1,2.5-61.8,7.1c-2,0.5-3,0.5-4.1,0.5c-1,0.5-1.5,0-2.5-0.5L-182.4,266.8z"/>
	<path d="M-163.7,275.4c0-1,0-1,1.5-1c3,0.5,6.1,1.5,7.1,1.5c1.5,0.5,2.5,0.5,3,0.5c1.5,0,1.5,0,10.1-1.5c7.1-1,12.2-1.5,22.8-2h8.1
		c5.6,0,8.6,0.5,13.2,1c2,0.5,4.1,0.5,5.1,0.5c0.5,0,3-1,4.6-2c1-0.5,2-1,2.5-1c1,0,1.5,0,4.6,2l4.1,2.5c2,2,4.1,3.5,5.1,4.6
		c0.5,1,0.5,1.5,0.5,2c0,0.5,0,1-0.5,1.5c-5.6,5.6-6.1,6.6-9.6,39.5c0,2-1,4.6-2,6.1c-0.5,1-1,1-3,1c-3,0-4.6-0.5-11.1-2.5
		c-2.5-0.5-2.5-0.5-2.5-0.5s-0.5,0-1,0c-1,0-12.2,0.5-13.2,0.5c-1.5,0-1.5,0-20.8-1.5h-3.5c-4.1,0-6.1,0.5-10.6,3.5
		c-3.5-1-4.1-1.5-7.1-3.5c0-4.6,0.5-10.6,0.5-12.7C-155.6,297.7-157.1,290.1-163.7,275.4z M-142.4,295.7c5.6-1,7.6-1,10.6-1
		c1,0,5.6,0.5,12.2,1c1.5,0,2.5,0,3,0c1.5,0,5.6-1,6.6-1c1.5-0.5,2.5-1,2.5-1c1.5-0.5,3,1,4.6,3.5c1.5,2.5,2,4.6,2,6.1
		c0,1.5-1,3-2.5,3.5c-1.5,0-2.5,0-3.5,0c-1.5,0-3.5,0-6.6-0.5c-5.1-0.5-8.1-1-9.6-1l-5.6-0.5l-2.5-0.5c-1.5,0-3,0-4.6,0
		c-4.6,0.5-6.1,1-6.6,3c0,2-0.5,3-0.5,4.1c0,4.6,1,6.6,3,6.6c3.5,0,8.1-0.5,16.2-1c2,0,6.1-0.5,11.1-0.5c5.1,0,12.2,0.5,17.2,1.5
		c0.5-1,0.5-1.5,1-3.5c0-1.5,0-4.6,0-4.6c0.5-7.1,1-13.2,1.5-22.3c-1-3-1-3-29.9-4.6c-2,0-13.7,0.5-16.7,1c-4.1,0.5-5.1,2-5.1,5.6
		C-143.9,291.6-143.9,293.2-142.4,295.7z"/>
	<path d="M-99.3,366.1c0-0.5,0-1,0-1c0-1,1-1.5,2-1.5c0.5,0,0.5,0,1,0.5c9.1,11.7,17.2,15.7,28.4,14.7c4.6-0.5,8.1-2,11.1-5.1
		c6.6-7.1,9.6-16.2,11.1-32.9c1-11.1,1-16.2,1-43.6c0-17.2-1-27.9-3.5-32.4c-1-1.5-1.5-2.5-4.1-4.1c-0.5-1-1-1.5-1-2
		c0-0.5,0-1,0.5-2c1.5-2.5,3-4.1,4.6-4.6c7.1-4.1,20.8-6.6,32.9-6.6c2,0,11.7,1,13.2,1c6.6,1,10.1,1.5,12.2,1.5c1.5,0,3.5-1,7.6-3
		c0.5-0.5,1-0.5,1-0.5c0.5,0,0.5,0,1.5,1c8.1,9.1,12.2,14.2,12.2,16.2c0,1-0.5,2-1.5,3c-6.6,5.1-7.6,9.1-7.6,43.1
		c0,20.3,0.5,28.9,3,50.2l0.5,9.6l0.5,5.1c0,6.1-1,14.7-2.5,18.2c-1.5,4.1-4.1,6.1-8.1,5.6c-3.5-0.5-6.1-2.5-7.1-6.1
		c-0.5-2-0.5-2-0.5-16.7v-10.6c0-14.2,0-14.2-0.5-16.2c-0.5-2.5-4.6-4.1-8.1-3.5c0,0-1.5,0.5-3.5,0.5c-2,0.5-5.6,0.5-8.1,0.5
		c-2,0-2,0-6.1-0.5h-7.1c-2.5,0-4.1,0-4.1,0c-2,0-3,1-3,3.5c-1.5,17.2-3,22.3-6.6,29.4c-5.6,10.6-15.2,17.2-25.3,17.2
		C-79.6,394-91.2,384.9-99.3,366.1z M-31.9,287.6c7.1-1,10.6-1,16.7-1c3,0,16.7,0.5,20.8,0.5c7.1,0,7.6-1,8.1-13.2l0.5-5.6
		c0-1,0-4.1-0.5-5.6c-1-3.5-6.1-5.6-13.7-5.1c-2,0-3.5,0-4.6,0c-8.1,0-9.1,0-13.2,0.5c-0.5,0-1.5,0-3.5,0c-7.1,0-11.1,1.5-11.7,6.1
		c-0.5,2-0.5,6.1-0.5,9.1C-33.5,275.9-32.9,282.5-31.9,287.6z M-30.9,333.2c5.1-2,9.1-2.5,15.2-2.5h5.6h9.6c5.6,0,5.6,0,10.6,0
		c1-11.7,1.5-18.2,1.5-23.3c0-8.6-1-10.1-10.1-10.1c-0.5,0-2.5,0-5.6-0.5c-4.6-0.5-7.6-0.5-12.2-0.5c-2,0-10.1,1-12.2,1.5
		c-2,0.5-2.5,1-4.1,2.5c1,10.1,1,15.7,1,19.8c0,4.1,0,6.1-0.5,12.2L-30.9,333.2z"/>
	<path d="M87.7,262.3c1-1.5,2.5-3.5,3.5-5.1c3-4.6,3.5-5.1,5.6-8.1c0.5-0.5,1-1,1.5-1c0.5,0,1,0,1,1c0.5,0.5,1,1.5,1.5,1.5
		c4.1,5.1,7.1,6.6,13.2,6.1c2,0,2,0,12.7-1.5c15.2-2,35-3.5,43.6-3.5c24.8,0,26.4,0,47.1,3c3,0.5,4.1,0.5,7.6,0.5
		c4.1,0,4.1,0,15.7-7.1c0.5,0,1,0,1,0c0.5,0,1,0.5,2,0.5c3,2,4.1,3,10.1,10.6c4.1,5.1,4.6,6.1,4.6,8.1c0,1,0,1.5-1.5,3
		c-4.6,5.6-5.1,7.1-5.1,38.5c1.5,53.2,1.5,53.2,1.5,61.8c0,12.2-2.5,18.2-8.6,19.3c-4.6,0.5-5.1,0.5-10.1-6.6c-1.5-2-2-2.5-5.6-3
		h-12.2c-14.2,0-14.2,0-16.2,0l-35.5,1l-20.8,0.5c-6.1,0-10.1,0-11.1,0c-18.2-0.5-23.3,1-31.4,9.1c-0.5,0.5-1,1-1.5,1
		c-0.5,0-1,0-2-0.5c-1-2-1.5-3-2-3.5l-7.6-11.1c0-0.5,0-0.5,0-1c0-0.5,0.5-1,1-1.5c6.6-1,8.1-4.1,8.1-15.7c0-0.5,0-0.5-0.5-12.2
		v-8.1l-1-23.3c0-6.1-0.5-20.8-0.5-23.3C95.3,271.9,94.2,266.8,87.7,262.3z M112.5,370.2c26.9-2,27.4-2,41.6-2
		c9.6,0,19.3-0.5,28.4-0.5c5.6,0,44.1,1,47.6,1c6.6,0.5,7.6-1.5,7.1-8.6c-0.5-5.6-0.5-9.1-0.5-14.7c0-1.5,0-6.1,0.5-12.2
		c0-2,0-5.1,0-8.6c0.5-11.7,0.5-19.3,0.5-23.3c0.5-13.2,0.5-16.7,0.5-20.8c0-10.1-1.5-12.7-8.1-12.7c-2.5,0-4.1,0-4.6,0
		c-2.5,0-4.6,0-5.1,0c-8.6,0-17.7-0.5-46.1-2c-1,0-4.1,0-9.1,0c-7.1,0-11.1,0-22.8,1l-7.6,1h-2.5c-2.5,0-5.1,0-7.6,0
		c-3-0.5-5.1-0.5-7.1,0c-3,0-5.1,2-6.1,4.6c-0.5,1.5-1,4.6-1,11.1c0,2.5,0,2.5,1,14.7c0.5,4.6,1,20.8,1,26.9c0,5.6-1,27.4-1.5,44.1
		C111,370.2,111,370.2,112.5,370.2z"/>
	<path d="M129.7,305.3c0.5-0.5,1.5-1,2.5-1c0.5,0,1,0,2,1c1,3.5,4.1,5.6,9.1,5.6c1,0,3,0,4.6,0c13.2-1,22.3-1.5,32.4-1.5
		c9.1,0,16.2,0.5,21.3,2c2,0.5,4.1,1,5.1,1c3,0,5.1-2,6.6-5.6c0-0.5,0.5-1,0.5-1c1.5-1,3,0.5,3,2.5c0,0.5,0,1,0,1.5
		c-2,13.2-3,15.2-7.1,16.2c-2.5,0.5-3,1-4.6,2.5c-1,1-1.5,1.5-2.5,1.5c0,0-0.5,0-1.5-0.5c-5.6-3.5-10.1-4.6-20.3-4.6h-4.1
		c-1.5,0-3.5,0-6.6,0c-2,0-3,0-4.1,0h-7.1c-21.8,0-25.3,1-31.4,10.1c-0.5,0.5-1,0.5-1,0.5c-1.5,0-1.5-0.5-2-5.1
		c0-3.5,0.5-5.6,0.5-6.6l2.5-10.6l0.5-2C128.7,310.4,129.2,307.9,129.7,305.3z"/>
	<path d="M413,393c0-0.5,0-1,0-1s0-0.5,0.5-1c0.5-0.5,1-0.5,1.5-0.5l1.5-0.5c7.1-2.5,13.2-10.1,16.2-19.8c2-6.1,3-12.7,3.5-19.8
		c0.5-5.6,1-25.8,1-28.9c0-0.5,0-1.5,0-3.5c-0.5-4.6-0.5-8.6-0.5-12.7c-0.5-27.4-1.5-33.4-8.6-49.7l9.1-9.6c0.5-0.5,0.5-0.5,1-0.5
		h0.5c1.5,1,2.5,2,3,2c2.5,1.5,5.6,2.5,8.6,2.5c2,0,2.5,0,5.1,0c2.5,0,4.1-0.5,6.1-0.5h11.1c1.5,0,12.2-1,14.2-1.5
		c3.5-0.5,7.1-2,13.7-6.1c1-1,2-1.5,3-1c1,0.5,1.5,1,2.5,2c5.1,5.6,8.6,10.6,9.6,12.7c0.5,1,0.5,1.5,0.5,2c0,2-1.5,3-4.6,3
		c-1,0-1,0-6.1-1c-1.5-0.5-3.5-0.5-5.6-0.5c-2.5,0-3,0-6.1,0.5c-6.6,1-15.2,2-17.2,2h-7.6c-0.5,0-2.5,0-5.6,0.5
		c-2.5,0-5.1,0.5-6.6,0.5c-1.5,0-2.5,0-3,0c-1.5,0-3,0-3.5,0c-2,0-3.5,1-4.1,2c0,1,0,1,2,11.7c1,4.6,1.5,9.1,1.5,16.7c0,1,0,2,0,3.5
		c0.5,1,0.5,1,1.5,1c4.6-1,16.2-2,24.8-2c13.7,0,19.3,0.5,32.9,1.5c1.5,0,2.5,0,3.5,0c6.1,0,10.6-3,14.7-10.6c1.5-2.5,2-4.6,2.5-7.1
		c1.5-1.5,2-1.5,3-1c0.5,0,0.5,0.5,1.5,1c0,0.5,0,1,0,1.5c0.5,3.5-1.5,11.1-3.5,16.7c-4.1,11.1-8.6,17.2-13.2,17.2
		c-2,0-3-0.5-6.1-1.5c-8.6-4.6-10.1-5.1-13.7-4.6c-3.5,0.5-5.6,2.5-6.6,6.1c-0.5,3-1,4.6-1,16.2c0,6.6,1,18.7,2,27.9
		c1,8.6,1.5,16.7,1.5,20.3c0,5.6-1.5,10.6-3.5,14.2c-1,1.5-3,2.5-5.6,2.5c-3,0-4.6-1.5-6.6-5.6c-2.5-5.6-3-8.1-3-14.7
		c0-2,0.5-8.1,1-12.7c1-10.6,1-13.7,1-18.2c0-14.7-1.5-30.4-3-35c-1-3.5-4.6-5.1-9.1-5.1c-4.6,0-9.6,1-12.2,3c-1.5,1-2,3-2,10.1
		c0,1.5,0,5.6,0.5,12.2c0,4.1,0.5,6.1,0.5,10.6c0,10.6-1,21.8-3,28.4c-3,10.1-8.6,16.7-19.3,20.8c-5.6,2-11.1,3-15.7,3
		C413.5,394,413.5,393.5,413,393z"/>
	<path d="M364.3,336.2v-12.2c-2,0-3,0-4.6,0c-2,0-2,0-8.1,0.5c-1.5,0-2,0-4.1,0c0,0-4.1,0-8.6-0.5c-1.5,0-3,0-5.1,0
		c-6.6,0-7.1,0-15.2,2.5c-2,0-3-0.5-4.1-2c0-0.5,0-1,0-1.5c0-1.5,2-4.6,5.1-7.6c2-2,4.6-3,6.1-3c0.5,0,1.5,0.5,2.5,1
		c1.5,1,2.5,1,5.6,1.5c7.1,0,12.7-0.5,14.7-0.5c9.1-0.5,11.7-0.5,16.2-1v-6.6c-2-3-2.5-3.5-2.5-6.6c-23.8,0.5-35,2-48.1,7.1
		c-0.5,0.5-1.5,0.5-2,0.5c-1.5,0-2-0.5-2-2c0,0,0-0.5,0-1c0.5-2,0.5-2,1.5-3.5l5.6-11.7h0.5h0.5c1.5,2,3.5,3,5.1,3c1,0,2,0,3.5,0
		c5.1-0.5,12.2-1.5,22.3-2.5c0-4.1,0-5.6,0-8.6v-13.2c0-3.5-0.5-6.6-1-7.1c-0.5-0.5-2-1-6.1-1c-4.6,0-12.7,2.5-16.7,5.6
		c-0.5,0.5-0.5,0.5-2.5,2c-0.5,0.5-0.5,0.5-1.5,1c-0.5,0-0.5,0-1,0c-1,0-2-1-2-2l0,0c1-5.1,3-9.1,7.1-18.7c3,2,3,2,7.1,3.5
		c14.2,0,16.7,0,30.4-0.5v-11.7c2.5-1,4.1-1,13.7-1c2.5,0,4.1,0,7.6,1v12.2c7.6,0.5,15.7,1,18.2,1c3.5,0,6.1,0.5,8.6,0
		c4.6-0.5,7.6-2,11.1-5.6c0.5-0.5,0.5-1,1-1c0.5,0,1,0,1,0c0.5,0.5,1,1,1,1.5c0,0.5,0,1,0,1c-0.5,2-1.5,3.5-1.5,4.1
		c-0.5,0.5-1.5,2-3,4.6c-1.5,0.5-2.5,2.5-4.6,5.6c-1,1.5-2,2.5-3,2.5c-0.5,0-1,0-1.5,0c-0.5,0-3-0.5-7.1-1.5c-2.5-0.5-5.1-1-9.6-1
		c0,4.6,0,4.6,0,8.6c0,5.6-0.5,11.1-2.5,20.8c13.2,2,13.7,2,16.2,2c5.6-0.5,9.6-3,14.7-9.1l0.5-0.5c1-0.5,2,0.5,2,1.5
		c-1,3.5-3,7.1-5.1,9.6c-1.5,2-5.1,5.1-7.1,7.1c-2.5,2-3.5,2.5-5.1,2.5l-2-0.5l-5.1-1.5c-7.1-2.5-14.2-3.5-22.8-3
		c-0.5,5.1-0.5,7.6-0.5,12.7c1.5,0,3,0,3.5,0h5.1c1.5,0,5.6,0.5,10.1,1c6.1,1,10.1,1,14.7,1c1.5,0,3-0.5,5.6-1c0.5,0,0.5,0,0.5,0
		c1,0,1.5,1,1.5,1.5c0,0,0,0.5-0.5,0.5l-1,2c-1,2-2,3-2.5,4.1l-2,4.6c-0.5,1-1,1.5-1.5,1.5H411c-2.5-1-3.5-1.5-4.6-1.5
		c-0.5,0-1.5-0.5-2.5-0.5l-7.6-1c-13.2-2.5-13.2-2.5-17.7-2.5l-0.5,12.2c16.7,1,19.8,1,40,2.5c3-0.5,3.5-1,5.6-2c1-1,1.5-1,2-1
		c1.5,0,2,0.5,2,2c-1,2.5-1.5,3.5-4.1,6.6c-1,1.5-2,2.5-2.5,3c-3,3.5-3,3.5-8.1,3.5l-3.5,1c-1,0-1.5,0-5.1-2
		c-4.1-2.5-16.2-5.1-24.8-5.1c3.5,11.7,14.7,23.8,22.8,24.8c6.1,1,12.7-2.5,15.7-8.6c0.5-1,0.5-1,1.5-1c1,0,1,0.5,1,2
		c-0.5,4.6-1.5,7.1-3.5,10.6c-4.1,7.1-11.1,12.7-16.7,12.7c-4.1,0-9.6-5.1-13.7-12.2c-3-5.1-4.6-9.1-9.1-19.3c0,8.6,0,16.2,0.5,18.7
		c0,2,0,3.5,0,4.1c0,4.1,0,6.6,0,6.6c0,2,0,3,0,4.1c-0.5,4.1-4.1,7.1-8.6,7.1c-5.1,0-8.6-5.1-8.1-11.1c0-1,0.5-4.1,1-7.6
		c1-5.1,1-11.1,2-30.9l-4.1,8.6c-11.1,22.8-11.1,23.3-15.2,28.4c-3.5,4.6-7.1,7.1-10.6,7.1c-8.6,0-18.7-11.1-23.8-25.8
		c0-1.5,1-2.5,2.5-1.5c0.5,0,1,0.5,1,1c5.6,6.6,11.7,10.1,17.7,10.1c6.1,0,12.7-6.1,19.8-18.2c3.5-6.1,4.1-7.6,4.6-10.6
		c-18.2,0.5-36,4.1-43.6,9.1c-0.5,0.5-1,0.5-1.5,0.5c-1,0-2.5-1.5-2.5-3c0-4.1,0.5-8.1,3.5-13.2c0.5-1,1-1.5,1.5-1.5s1,0,2,0.5
		c1.5,0.5,2,1,3,1c2.5,0.5,2.5,0.5,14.2-1c2-0.5,16.2-1,21.3-1C359.3,336.2,362.3,336.2,364.3,336.2z M360.8,290.6
		c3.5,0,6.6,0,8.1,0c7.1,0,8.6,0,11.7,0.5c-1-3-1.5-5.1-1.5-8.6c0-2,0-2,1.5-11.1c0-0.5,0-1.5,0-2.5c-0.5-4.6-0.5-4.6-1-7.1
		c-3.5,0-6.6-0.5-7.6-0.5h-3.5c-2,0-3.5,0-4.6,0c-2.5,0-3,1-3,3.5c0,1,0,3,0,4.6s0,4.1,0,7.1l-0.5,8.1
		C360.3,287.6,360.3,287.6,360.8,290.6z"/>
	<path d="M702.3,402.6c0-1,0-1.5,0-2v-3v-3V391c-0.5-2-3-2.5-7.6-2c-2,0.5-6.6,0.5-17.7,0.5c-2,0-3.5,0-4.1,0c-0.5,0-2,0-4,0
		c-3,0-8.1,0-14.2,0c-6.1,0-11.1-0.5-12.2-0.5c-4.6,0-19.3,0.5-21.3,1c-4.6,0.5-11.2,3.5-14.7,5.6c-0.5,0.5-1,0.5-1.5,0.5
		c-1.5,0.5-3-1-3-2.5c0-1,0-1.5,0-2c1-2,1-2.5,2-3.5c1.5-2.5,2.5-4.6,5.1-9.6c0.5-1.5,1-2,1.5-2c0.5,0,0.5,0,2,0.5c2,2,4.1,3,5.1,3
		c1,0,2,0,3.6,0c2.5-0.5,4-0.5,8.1-1c0-4.6,0-7.1,0-8.6l-1-15.2v-6.6c0-4.6,0-9.1,0.5-13.7c0.5-2.5,0.5-4.6,0.5-8.1
		c-1.5,0-2.5,0-3,0c-7.1,0-11.2,1-16.7,5.6c-1,1-2,1.5-3,1c-1,0-1.5-0.5-1.5-1.5c0-0.5,0-1,0-1l0.5-1v-2c0-0.5,0.5-1.5,1-2.5
		l3.5-5.6c0.5-1,1.5-2.5,2.5-5.6c1-1.5,1.5-2.5,2.5-2c0.5,0,1.5,0.5,2.5,1.5c2.5,2,2.5,2,5.1,2c1,0,3,0,5.1,0c4.1,0,4.1,0,12.7,0
		c0.5,0,3,0,5.6,0c26.9,0.5,57.3,1.5,71.5,1.5h1c6.1,0,9.1-1,13.2-4.6c0.5-0.5,1.5-0.5,2-0.5c1,0,1.5,0.5,1.5,2
		c-1,1.5-1.5,3.5-2.5,5.1c-2,3.5-3,6.1-3.6,7.1c0,0.5-0.5,1.5-1,2.5c-1,1.5-1.5,2-3,2c-1,0-1.5,0-4.1-1.5c-4.1-2-7.6-2.5-12.7-2
		c-8.6,0.5-8.6,0.5-19.8,0.5c-21.8,0-28.9,0-46.6-0.5c-0.5,2-0.5,3-0.5,4.1c0,4.6,1,6.6,5.1,6.6c2.5,0,3.5,0,4,0l8.6,0.5
		c0.5,0,3.5,0,7.6,0s4.1,0,14.7,0h7.6c5.6,0,5.6,0,15.7-3.5c0.5,0,1-0.5,1.5,0c3.5,0,15.2,6.6,15.2,8.1c0,0.5-1,2-2.5,3
		c-2,1.5-3,3-3.5,3.5c0,0.5,0,2,0,4.6c0,0,0,1.5,0,4.1v9.6v3.5v2.5c0,1,0,2.5,1,15.7c0.5,6.6,0.5,6.6,0.5,9.1
		c-0.5,5.6-2.5,8.6-7.1,9.1C706.4,407.2,703.4,406.2,702.3,402.6z M643.6,361.1c6.1-1,17.2-2,30.4-2.5h5.6h4.6h5.6h5.1
		c5.6,0,7.1-1,7.1-5.6c0-3.5-1-4.6-3.5-5.1c-0.5,0-3,0-6.6,0.5c-0.5,0-1.5,0-2.5,0c-0.5,0-3,0-5.6,0c-3,0-6.6,0-7.6,0
		c-12.7,0-16.2,0-23.8-1c-8.1-0.5-10.6,0.5-10.6,6.6C642.5,356,642.5,356,643.6,361.1z M702.3,379.3c1-2,1-2.5,1-4.1
		c0-4.6-2.5-6.1-8.6-6.1h-5.6l-7.6,0.5c-1,0-2.5,0-5.1,0h-17.7c-6.6,0-7.6,0-12.2,1c-1.5,0.5-2,1-2.5,2.5c0,0.5-0.5,2.5-0.5,5.6
		c10.1,0,11.6,0,24.8,0C686.6,378.3,689.2,378.3,702.3,379.3z"/>
	<path d="M682.6,258.2c-1-1-1.5-2-2-2.5c-0.5-0.5-1-1-1-1.5c0-1,0-1,2.5-4.1l4-4.6l2.5-2.5l1-1c1-0.5,1.5-1,2-1c0.5,0,1,0,1.5,0.5
		c1.5,1,2.5,2,3,2c1.5,1,2.5,1.5,2.5,2c4.1,3,4.6,3,7.1,3h3h5.6c7.6-1,12.2-1,14.2-1l18.2,0.5c1.5,0,1.5,0,5.1-2.5l1.5-1
		c3.5-3,3.5-3,4.6-2.5c0.5,0,1.5,0.5,2,1.5c3,2,4.1,2.5,8.6,5.6c1.5,1,2.5,2,2.5,2.5c0,0.5-0.5,2-1.5,4.1c-3.5,6.6-4,9.6-4,36.5
		c0,21.3,2,80.6,3,90.2c0.5,3,0.5,5.6,0.5,8.1c0,4.6-1.5,9.1-3.5,11.7c-1.5,2-3.6,3-6.6,3c-3.6,0-6.1-2.5-6.6-6.6
		c-0.5-2.5-1.5-19.3-1.5-26.4v-10.6v-17.2c0-0.5,0-2.5,0-5.1c0-4.6,0-9.6,0-15.7c0-19.8-0.5-20.8-8.1-20.8c-2.5,0-7.1,0.5-11.1,0.5
		c-5.1,0.5-6.6,0.5-15.2,0.5c-2,0-3.6,0-4.6,0c-1,0-2,0-2.5,0c-4.1-0.5-7.1-0.5-7.6-0.5c-1,0-1,0-4.1,2c-1,0.5-3.5,1-4.6,1
		c-6.6,0-9.6-4.6-9.6-16.7v-9.1v-9.1c0-3.5,0-5.6,0-6.1C684.1,262.8,683.6,259.7,682.6,258.2z M699.8,270.4
		c28.9-0.5,32.4-0.5,36.5-0.5c5.6,0,8.1,0,15.2,0c0-2.5,0.5-4.1,0.5-5.6c0-1,0-3-0.5-5.1c-2,0-3.6-0.5-4.1-0.5h-2h-8.6h-6.1
		l-15.2-0.5c-4,0-8.6-0.5-9.1-0.5c-4.6-1-6.6,0-6.6,3C699.3,261.2,699.3,261.2,699.8,270.4z M700.3,279.5c0,2.5-0.5,5.1-0.5,6.1
		c0,2,0,4.1,0.5,7.6l1,0.5c4.1-0.5,6.1-0.5,10.1-0.5c6.6,0,11.6,0,17.2,0.5c5.6,0.5,8.6,0.5,10.6,0.5c0,0,3.5,0,11.1-0.5
		c1-4.1,1.5-7.6,1.5-12.2v-3c-4.6,0-6.6,0-8.1,0h-13.7h-6.6c-1.5,0-2.5,0-3.5,0L716,279c-9.6,0.5-9.6,0.5-13.7,0.5
		C701.8,280,701.3,279.5,700.3,279.5z"/>
	<path d="M570.6,256.7c0-0.5-0.5-1-0.5-1.5c0-1,0-1,4.6-5.6l2.5-3.5c0.5-0.5,2-2.5,3.6-4.1c0.5-0.5,1-1,1.5-0.5c1,0,1.5,0.5,2.5,1.5
		c1,0.5,2,1,2,1l2.5,1.5c0.5,0.5,1.5,0.5,2,0.5c0.5,0,1,0,1.5,0c2.5,0,5.1,0,5.6,0h5.1c6.6,0,12.7,0.5,27.9,2c3.6,0.5,4.1,0,7.1-2
		c2.5-2,3-2,4.1-3c1-0.5,1.5-1.5,2.5-2c0.5,0,1,0,1,0c1,0,1.5,0.5,3,2l1,0.5l3.5,2.5c7.6,5.6,7.6,5.6,7.6,6.6c0,0.5-1,2-2.5,4.1
		c-3.6,4.6-4.6,8.6-4.6,23.8l0.5,14.2c0,9.6-1.5,12.7-6.6,12.7c-7.1,0-8.1-0.5-10.1-5.6c-11.1,0.5-20.8,0.5-25.3,0.5
		c-7.6,0-12.2,0-22.8,0c0.5,19.3,0.5,23.8,0.5,40.5c0,17.2-2,40-4.6,55.2c-1,5.6-2,7.1-6.6,7.6c-3,0.5-5.1-0.5-7.1-3.5
		c-2-3-3.5-7.1-3.5-10.6c0-2,0-3,2-9.1c1.5-6.6,2-10.1,3-22.3c0.5-10.6,1.5-39.5,1.5-45.6v-26.9v-11.1
		C575.7,264.8,575.1,263.3,570.6,256.7z M640,268.3c0-1,0-2.5,0-2.5v-1.5c-0.5-6.1-1.5-7.6-6.1-7.6c-1.5,0-3,0-4,0
		c-3,0-6.1,0.5-9.6,0.5c-2,0-2,0-14.7-1c-3-0.5-6.6-0.5-8.6-0.5c-4.6,0-6.1,0.5-7.1,2.5c0,1.5-0.5,2.5-0.5,3c0,2,0,3,0.5,5.6
		c4,0.5,6.6,0.5,8.1,1l4.6,0.5c2,0,3.5,0.5,4.6,0.5c3.5,0,7.6,0.5,11.6,0.5h16.7C636,268.3,638,268.3,640,268.3z M640,276.9
		c-18.8-0.5-21.3-0.5-28.4,0c-2.5,0-4,0-5.1,0h-6.1c-3,0-7.6,0.5-10.1,1l0.5,13.7h16.2h8.6c7.6,0,13.7,0,18.2,0.5
		c3.6,0.5,5.1-0.5,5.6-3c0.5-1.5,0.5-2.5,0.5-5.6V280V276.9z"/>
	<path class="st0" d="M810.3,469c-126.7-28.4-309.6-46.1-512.8-46.1S-88.7,440.6-214.9,469c-0.5,0-0.5,0.5-0.5,0.5
		c0,0.5,0.5,0.5,0.5,0.5c133.3-22.3,313.7-35.5,512.3-35.5c198.6,0,379,13.7,512.3,35.5c0,0,0.5,0,0.5-0.5
		C810.8,469.5,810.8,469,810.3,469z"/>
	<path d="M711.5,531.3c0-0.5-1-0.5-1.5-1c-0.5,0-1.5,0-2,1c-1,3-5.1,9.1-11.7,11.1c-2.5,1-3,2-11.7,2.5c-6.1,0.5-10.1,0.5-13.2,0.5
		c-0.5,0-1.5,0-2,0c-1.5,0-3.5-0.5-3.5-4.6c0-1.5,0-46.6,0-48.6c0-3,1-4.1,2-4.6c0.5-0.5,2-0.5,3-0.5c1,0,1.5,0,2,0
		c0.5,0,1,0.5,2,0.5c0.5,0,1.5,0,2-0.5c1-1,4.1-4.6,4.6-6.6v-0.5c0-0.5-0.5-0.5-1-0.5c-0.5,0-1,0.5-1.5,1c-1,1-6.1,1-8.6,1
		c-2.5,0-9.1,0-12.2,0c-3,0-7.6-0.5-9.1-0.5c-1,0-3-1-4.6-1c-0.5,0-1.5,0-2,1c-1,1.5-3,4.1-3,6.1c0,0.5,0,1,0.5,1.5h0.5
		c1,0,3.6-1,5.1-1c1.5,0,2.5,0,3.6,0.5c2.5,1,3.5,2,3.5,3.5V542c0,1.5-1,5.1-1.5,5.6c-0.5,0.5-1,0.5-2,0.5c-0.5,0-1.5,0-1.5,0
		c-0.5,0-1-0.5-1.5-0.5c-0.5,0-0.5,0-1,0.5c-0.5,1-1.5,3.5-2.5,4.6c0,0.5-0.5,1-0.5,1c0,0.5,0.5,1.5,1.5,1.5h0.5c1-0.5,4.6-1,5.6-1
		c1-0.5,8.1-0.5,10.1-0.5c1,0,6.1,0,11.2,0c6.1,0,12.7,0,15.2,0c3.5,0,7.6,0,10.6,0.5c2.5,0,4.6,1,6.1,1h0.5c2-0.5,3.5-2,3.5-3
		c1-1.5,2-4.6,2.5-7.1c0.5-3,1-7.6,1-11.1C712,532.3,711.5,531.8,711.5,531.3z"/>
	<path d="M588.3,543c0,0-0.5,0-0.5,0.5c-0.5,2.5-3,3.5-5.6,3.5c-1.5,0-3-0.5-3-0.5c-1.5-1-3-5.1-4-6.6c0,0-23.3-50.2-23.8-51.2v-0.5
		c0-0.5,0.5-1.5,1-1.5c0.5-0.5,1.5-1,1.5-2c0-0.5,0-1-0.5-1.5c-1.5-1-5.1-6.1-8.1-6.6c-0.5,0-1.5,0.5-2,1.5
		c-0.5,1.5-0.5,2.5-1.5,4.1l-30.4,59.3c-1,2.5-2.5,3.5-3,4.6c-0.5,0.5-2,1.5-4.1,1.5h-0.5c-2.5,0-2,2-4.6,5.6v0.5c0,0.5,1,1,1.5,1
		c1.5,0,4.6-1,5.6-1c1.5-0.5,5.6-0.5,9.6-0.5c4.1,0,7.6,1,9.1,1c0,0,0,0,0.5,0c2,0,3.5-3.5,4.1-4.6c0.5-0.5,1-2,1-3
		c0-0.5-0.5-1-1-1.5c0,0,0,0-0.5,0c-1.5,0-1.5,1.5-5.1,1.5c-1,0-1.5,0-3-0.5c-1,0-1-0.5-1.5-1.5c0-1,0.5-2,1-3.5
		c1.5-3.5,5.6-11.7,6.1-12.2c0.5-0.5,1-1,2-1s7.1,0,11.7,0h1.5c1,0,3.5,0,4.1,0s2.5,0.5,2.5,0.5h0.5c0.5,0,0.5,0,1-0.5v-0.5
		c0-1-1-2.5-2-4.6c-1-2-1.5-3.5-2-4.1c0-0.5-1-1-1.5-1s-0.5,0-1,0s-1,0.5-1,0.5c-0.5,0.5-0.5,0.5-1,0.5h-9.1c0,0,0,0-0.5,0
		c0,0,0,0,0-0.5c0.5-1.5,9.1-19.8,9.6-21.3l0.5,0.5c0,0.5,11.1,23.3,11.1,24.3c0,0,9.1,18.7,9.6,22.8v0.5c0,1-1,1.5-1.5,1.5
		s-0.5,0-1,0c-0.5,0-0.5,0-1,0c-2,0-2.5,3-3.5,5.1v0.5c0,0.5,0.5,1,1,1c1,0,2.5-0.5,3.5-1c0.5,0,3.5,0,6.6,0c4.6,0,10.6,0,11.7,0
		c2,0,3,1.5,5.1,1.5c2.5-0.5,4.1-8.1,5.1-10.1C589.3,543.5,588.8,543,588.3,543z"/>
	<path d="M458.6,477.1h-0.5c-1,0-1.5,0.5-1.5,1c0,0.5-2,2-3,2.5c-2,1-3,1-4.6,1c-1,0-2,0-3,0h-56.2c-3,0-5.6-2-7.6-2
		c-2.5,0-5.1,6.1-6.6,8.1c-1,1.5-1.5,2.5-1.5,3.5c0,1,0.5,2,1.5,2.5c0.5,0.5,1,0.5,1.5,0.5c1,0,2-0.5,2.5-0.5c2-0.5,4.6-2,6.1-2.5
		c3-0.5,5.1-1,7.1-1c2,0,13.7,0,14.7,0c1,0,1,0.5,1,1v49.2c0,2.5-0.5,5.6-1.5,6.6c-1,0.5-2,1-3,1h-0.5c-1.5,0-3-1-4.1-1.5
		c-1,0-1,1-2,1.5c-1,1-2.5,3.5-2.5,4.1c0,0,0,0.5,0,1s0.5,1,1,1c1,0,4.1-0.5,7.6-0.5c3.5,0,5.6-0.5,11.1-0.5c4.1,0,6.1,0,7.6,0
		c0.5,0,1,0,1.5,0c0.5,0,0.5,0,1,0c1,0,2,0,3,0s1.5,0,2.5,0c1.5,0.5,2.5,0.5,3,0.5c1,0,2-0.5,2.5-2.5c0.5-1,1-3,1.5-4.6
		c0,0-0.5-0.5-1-0.5h-0.5c0,0.5-1.5,1-3,1.5c-1,0-2,0-3,0c-1,0-2.5,0-3,0c-1.5-0.5-5.1-1-5.1-6.6c0-1.5,0-48.1,0-49.7c0-1,0.5-1,1-1
		h15.2c1.5,0,6.1,0.5,7.6,2c1,1.5,2.5,1.5,3,1.5h0.5c1,0,4.1-1.5,7.1-7.1c0.5-1,2.5-5.1,3-7.6C459.6,478.1,459.6,477.1,458.6,477.1z
		"/>
	<path d="M313.2,546.5c-1.5,0-2.5,0.5-4.1,1c-1,0-2,0.5-2.5,0.5s-1,0-2-0.5c-2-1-4.1-2-4.1-6.1c0-1.5,0-46.1,0-48.1
		c0-2.5,1.5-5.6,3-5.6h0.5c1,0,3,0.5,3.5,0.5c0,0,0,0,0.5,0c1.5,0,2-2,3-3.5c1-1,2-2.5,2-3.5c0,0,0-0.5-0.5-0.5h-0.5
		c-1,0-2.5,0.5-3,1c-0.5,0-6.1,0.5-8.6,0.5H300c-3,0-9.1,0-12.2,0c-2,0-6.1,0-7.6-0.5c-0.5,0-0.5,0-1,0c-1,0-1.5,1-2.5,3.5
		c-0.5,1-1.5,3-1.5,4.1c0,0.5,0.5,1,1,1h0.5c1-0.5,3.5-1,5.1-1h0.5c2.5,0.5,4.6,1,4.6,3.5v47.6c0,3.5-0.5,8.6-4.1,9.1c-1,0-2-1-3-1
		c0,0,0,0-0.5,0c-1,0-1.5,1-2,1.5c-0.5,0.5-3,3-3,4.6c0,0,0,0.5,0.5,0.5s1,0,1.5,0c2,0,5.1-0.5,7.1-0.5c2.5,0,12.2-0.5,15.7-0.5
		c0.5,0,0.5,0,1,0c2,0,7.6,0,8.6,0.5h0.5c1.5,0,3-0.5,3.5-1.5c0.5-1,1.5-3,1.5-4.1C314.2,547,314.2,546.5,313.2,546.5z"/>
	<path d="M210.3,512.1c-0.5,0-0.5-0.5-1-0.5c-1,0-2,1-3.5,1c-1,0-3.5,0.5-5.6,0.5h-0.5c-3,0-9.1,0-12.2,0c-2,0-3-0.5-4.6-1
		c-0.5,0-0.5,0-1,0c-2,0-5.1,1-6.6,4.6c0,0.5-0.5,1-0.5,1c0,1,1,1.5,2,1.5c0.5,0,1,0,1.5,0c0.5,0,1.5,0,2,0c0.5,0,1,0,1.5,0
		c3,0.5,4.6,1.5,4.6,4.1v11.1c0,0.5-0.5,1-0.5,2c0,1,0.5,2,2,3.5c2,1.5,5.1,5.6,8.6,5.6h0.5c3-0.5,3-4.1,3-7.1v-0.5
		c0-1.5-0.5-11.1-0.5-13.2c0-0.5,0-1,0-1.5c0-1.5,0-3,3-4.1c4.1-1,5.1-2.5,6.1-4.1c0.5-1,1-1.5,1-2
		C211.3,512.6,210.8,512.1,210.3,512.1z"/>
	<path d="M186.5,545.5c-0.5-0.5-2-2-3.5-2c-1.5,0-1.5,1.5-2.5,1.5c-4.1,2-9.1,3-13.7,3c-9.1,0-28.9-8.1-29.4-32.4
		c0-23.8,17.7-28.9,25.3-28.9c6.1,0,8.6,0.5,16.2,3c8.1,3,12.2,7.6,13.7,9.6c1.5,2,3,6.1,6.6,6.1h0.5c2-0.5,2-2,2-4.1
		c0-2-0.5-4.6-0.5-6.6c0,0,0,0,0-0.5c0-3,0.5-3.5,1.5-5.1c0-0.5,0.5-1,0.5-1c0-1-1-2-1.5-3c-1-1-2-2-3.5-2.5c-0.5,0-1,0-1.5,0.5
		c-0.5,1.5-1.5,2.5-2.5,2.5c-1.5,0-2-0.5-4.1-1.5c-5.6-2.5-15.7-4.1-24.8-4.1c-17.7,0-40.5,10.6-41,38.5c0,20.3,16.2,35.5,42.1,35.5
		c8.6,0,16.2-2,21.3-4.6c1-0.5,2,0,2.5-1v-0.5C189.5,547,187.5,546,186.5,545.5z"/>
	<path d="M59.8,546.5c-0.5,0-1.5,0.5-2,0.5s-2,0.5-3.5,0.5c-0.5,0-1.5,0-2,0c-2.5-0.5-7.1-1-7.1-6.6c0-1.5,0-46.6,0-48.6
		c0-3,1-5.1,3-5.1h0.5c1,0,2,0,3,0s1.5,0,2-0.5c1-1,2-2.5,2.5-3.5c0.5-1,1-1.5,1-2.5c0-0.5,0-1-0.5-1h-0.5c-1.5,0-4.1,1-6.1,1
		c-2.5,0-8.6,0.5-12.2,0.5c-3.5,0-8.1,0-10.1-0.5c-1.5-0.5-2.5-1-4.1-1c-0.5,0-1.5,0.5-2,1c-1,1.5-3,3.5-3,5.1c0,1,0.5,1.5,2,1.5
		c3.5,0,7.6,0,9.1,1.5c1.5,1.5,1.5,2,1.5,2.5v47.6c0,2,0,4.1-0.5,5.6c-0.5,1.5-1,2.5-2,2.5c-1.5,0-3-1-4.6-1c-0.5,0-1.5,0.5-2,1
		c-1.5,2-3,3-3,4.6c0,1,0.5,2,2,2c0.5,0,0.5,0,1,0c1.5-0.5,7.1-1.5,13.2-1.5c3,0,6.1,0,8.6,0c2.5,0,4.6,0,6.1,0.5
		c2.5,0.5,4.1,1,5.1,1h0.5c1.5-0.5,3.5-4.1,4.1-6.1V547C60.8,547,60.3,546.5,59.8,546.5z"/>
	<path d="M-70.4,484.2c-8.1-3-15.7-3.5-22.8-3.5c-7.6,0-14.2,1-17.2,1c-6.6,0-7.1-1.5-8.6-2h-0.5c-1,0-2,1-3.5,3c-2,2-3,3-3,4.1
		c0,0.5,0.5,1,1,1c2,1,3,0.5,4.6,1c1.5,1,3,1.5,3,5.6v44.6c0,5.6-0.5,7.6-2.5,8.1c-2,0.5-6.6,1-6.6,3.5c0,2.5,2.5,4.1,6.1,4.1
		c1,0,1.5,0,2.5,0c5.1-1,13.7-1,16.7-1c2,0,9.1,0.5,14.7,0.5c2,0,4.1,0,5.6-0.5c4.6-1,17.7-2,26.9-12.2s9.1-18.7,9.1-24.3
		C-45.6,510-50.2,491.8-70.4,484.2z M-104.9,491.3c0-2,0-3.5,3-4.1c1,0,3,0,5.1,0c5.1,0,12.7,0.5,17.2,2c8.1,3,19.8,12.7,19.8,29.4
		c0,26.3-19.8,28.4-27.4,28.4c-4.6,0-13.2-1.5-14.7-2c-2-1-3-1-3-4.1c0-3.5,0-48.6,0-48.6S-104.9,491.8-104.9,491.3z"/>
</g>
</svg>
