<?xml version="1.0" encoding="utf-8"?>
<!-- Generator: Adobe Illustrator 19.0.0, SVG Export Plug-In . SVG Version: 6.00 Build 0)  -->
<svg version="1.1" id="Layer_1" xmlns="http://www.w3.org/2000/svg" xmlns:xlink="http://www.w3.org/1999/xlink" x="0px" y="0px"
	 viewBox="0 0 595.3 841.9" style="enable-background:new 0 0 595.3 841.9;" xml:space="preserve">
<style type="text/css">
	.st0{fill:#A5141C;}
	.st1{fill:#FFFFFF;}
</style>
<g>
	<rect x="-170.4" y="216.9" class="st0" width="972.7" height="339.2"/>
	<g>
		<g>
			<path class="st1" d="M190.9,317.4h-20.1v19.5h20.1V317.4z M170.9,348v15.6h44.7v20.3h-53.4c-16,0-19.3-11.2-19.3-20.5v-42.2
				c0-13.6,6.3-21.2,19.2-21.4c0,0,15.2-0.3,19.2-0.3c4,0,18.9,0.3,18.9,0.3c13.5,0.2,18.9,7.2,18.9,20.4V348L170.9,348L170.9,348z"
				/>
			<polygon class="st1" points="248.1,299.8 285.1,299.8 311.3,383.8 280.5,383.8 266.7,326.2 264.4,326.2 250.6,383.8 222,383.8 
							"/>
			<path class="st1" d="M363.8,318.9h-19.6v45.7h19.6V318.9z M372.8,383.8c0,0-16.3,0.3-18.9,0.3c-4.5,0-19-0.3-19-0.3
				c-9.7-0.2-18.9-3.7-18.9-20.1v-42.5c0-10.2,3.4-21.1,19.3-21.4c0,0,15-0.3,18.7-0.3c4.4,0,19,0.3,19,0.3c9.5,0.2,19,3.4,19,20.4
				v42.3C392.1,372.6,389,383.5,372.8,383.8"/>
			<path class="st1" d="M533.1,318.9h-19.6v45.7h19.6V318.9z M542,383.8c0,0-16.3,0.3-18.9,0.3c-4.5,0-19-0.3-19-0.3
				c-9.7-0.2-18.9-3.7-18.9-20.1v-42.5c0-10.2,3.4-21.1,19.4-21.4c0,0,15-0.3,18.7-0.3c4.4,0,19.1,0.3,19.1,0.3
				c9.5,0.2,19,3.4,19,20.4v42.3C561.4,372.6,558.3,383.5,542,383.8"/>
			<path class="st1" d="M83.6,288.4h3l13.6,75.7H69.9L83.6,288.4z M132.1,364.1l-21.2-100.7h-51L38.8,364.1h-7.3v20.3h107.3v-20.3
				L132.1,364.1L132.1,364.1z"/>
			<path class="st1" d="M448.8,335.5h-20.3v-17h20.3V335.5z M448.8,365.7h-20.3v-17h20.3V365.7z M464,341.6
				c9.7-1.3,10.8-8.7,10.8-15.3v-11.4c0-12.9-13-15.5-23.6-15.5h-22.6h-28.1v84.5h28.1v-0.1h33.2c11,0,15.4-6,15.4-16.1v-10.9
				C477.1,344.5,473.2,342.5,464,341.6"/>
			<path class="st1" d="M582.5,384.7h-12.1v-84.6h28v44.6c20.9-38.3,19.6-35.9,20.9-38.5c2.3-4.2,7.9-6.1,12.2-6.1h14.4v84.6h-28
				v-46.1c0,0-18.8,33.9-21.6,39C594.1,381.7,590,384.8,582.5,384.7"/>
			<path class="st1" d="M633.7,261.7c-0.1,4.9-1,8.9-2.7,12.2c-1.7,3.3-3.8,5.9-6.4,7.9c-2.6,1.9-5.5,3.3-8.7,4.1
				c-3.2,0.8-6.2,1.2-9.3,1.2c-3,0-6.1-0.4-9.3-1.2c-3.1-0.8-6-2.1-8.7-4.1c-2.6-2-4.8-4.6-6.4-7.9c-1.7-3.3-2.6-7.3-2.7-12.2h18.7
				c0.2,3.3,1.1,5.6,2.7,6.9c1.6,1.3,3.4,1.9,5.7,1.9c2.2,0,4.1-0.6,5.6-1.9c1.5-1.3,2.5-3.6,2.6-6.9H633.7z"/>
			<path class="st1" d="M439,476.2h-30.8v-20.8H439V476.2z M459.6,456c0-6.1-1.2-10.8-3.6-13.9c-0.3-0.4-0.7-0.6-1-1
				c-2.6-2.5-6.7-3.7-12.7-3.7h-33.9v-13.6h47.7v-20.3h-55.2c-3.5,0-6.3,0.5-8.6,1.4c-2.3,1-4,2.3-5.4,4c-1.3,1.7-2.3,3.7-2.8,5.9
				c-0.5,2.3-0.7,4.6-0.7,7.1v54.2c0,6.3,1.4,11,4.1,14.2c2.7,3.2,7.3,4.8,13.7,5h41c3.6,0,6.5-0.4,8.8-1.1c2.3-0.7,4.1-1.8,5.4-3.3
				c1.3-1.5,2.1-3.4,2.6-5.7c0.5-2.3,0.7-5,0.7-8.2L459.6,456z"/>
			<path class="st1" d="M-17.2,490.4V384.8H-51v105.6h-39.6V388.5c0-20.8,9.7-31.4,30.2-31.4h51.6c22.4,0,30,11.3,30,31.4v101.9
				L-17.2,490.4L-17.2,490.4z"/>
			<path class="st1" d="M81.4,422.1H60.6v20h20.7V422.1z M60.8,453.5v16h46v20.9h-55c-16.4,0-19.9-11.5-19.9-21v-43.4
				c0-14,6.5-21.9,19.8-22c0,0,15.6-0.3,19.8-0.3c4.1,0,19.4,0.3,19.4,0.3c13.9,0.2,19.4,7.3,19.4,21v28.6L60.8,453.5L60.8,453.5z"
				/>
			<path class="st1" d="M254.7,422.1H234v20h20.7V422.1z M234.1,453.5v16h46v20.9h-55c-16.4,0-19.9-11.5-19.9-21v-43.4
				c0-14,6.5-21.9,19.8-22c0,0,15.7-0.3,19.8-0.3c4.1,0,19.4,0.3,19.4,0.3c13.9,0.2,19.4,7.3,19.4,21v28.6L234.1,453.5L234.1,453.5z
				"/>
			<path class="st1" d="M345.4,423.4h-22.3v32.1h22.3V423.4z M354.3,475.2h-31v16.4h-28.8v-87.7h60.1c14.4,0,19.9,7.8,19.9,21.2V454
				C374.5,468,368.8,475.2,354.3,475.2"/>
			<path class="st1" d="M615.3,423.4H593v32.1h22.3V423.4z M624.2,475.2h-31v16.4h-28.8v-87.7h60.1c14.4,0,19.9,7.8,19.9,21.2V454
				C644.4,468,638.7,475.2,624.2,475.2"/>
			<path class="st1" d="M524.2,493.1h-32.1l6.9-17.9c-6.2,0-9.8-2.5-11.4-7.8l-24.4-63.5H496l13.1,43.9h2.4l13.3-43.9h30.4
				C555.2,403.9,519.8,506.8,524.2,493.1"/>
			<path class="st1" d="M681.5,423.6v66.8h-29.1v-65.5c0-12.9,5.7-21,20.1-21h36.2v19.7L681.5,423.6L681.5,423.6z"/>
			<polygon class="st1" points="174.1,424.2 174.1,490.4 140.6,490.4 140.6,424.2 117.5,424.2 117.5,404.4 197.7,404.4 197.7,424.2 
							"/>
		</g>
	</g>
</g>
</svg>
