<!-- <?xml version="1.0" encoding="utf-8"?> -->
<!-- Generator: Adobe Illustrator 19.0.0, SVG Export Plug-In . SVG Version: 6.00 Build 0)  -->
<svg version="1.1" id="Layer_1" xmlns="http://www.w3.org/2000/svg" xmlns:xlink="http://www.w3.org/1999/xlink" x="0px" y="0px" 
	 viewBox="0 0 595.3 841.9" style="enable-background:new 0 0 595.3 841.9;" xml:space="preserve">
<style type="text/css">
	.st0{fill:#0E0D0E;}
	.st1{fill:#1A171B;}
</style>
<g>
	<g>
		<path class="st0" d="M240.1,408.1c1-2.1,3.8-2.1,4.7-4.6c0.2-2.6,1.3-4.8-1.8-6.4c-0.5-0.3-1.7-0.9-2.3-0.9
			c-0.7,0-2.2,0.9-2.9,1.2c-2.6,1-4.6,2.7-6.8,4.2c-8.4,5.7-17.5,10.3-27,13.8c-2.3,0.8-4.7,1.7-7.1,2.3c-2.5,0.7-5.2,0.8-7.7,1.6
			c-4.7,1.5-10.4,0.7-15.4,0.7c-11.4,0-22.8,0-34.2,0c-2.5,0-5,0-7.6,0c-2.7,0.1-5.8,0.4-8.4-0.5c-1.7-0.6-2.2-1.8-2.2-3.5
			c-0.1-2.3,0.1-4.7,0.1-7c0-11.5,0-23,0-34.6c0-5.9,0-11.9,0-17.8c0-1.5-0.8-5,0.1-6.4c1-1.5,6.8-0.9,8.7-1
			c5.6-0.2,11.3-0.2,16.9,0c2.5,0.1,5.7-0.3,8.1,0.5c1.9,0.6,3.8,2.2,5.3,3.5c3,2.6,5,6.1,6.3,9.8c0.7,2,1.1,3.7,1.3,5.7
			c0.2,2.1,0.6,4.2,2.2,5.6c1.6,1.4,3.5,1,5.3,0c1.9-1,2.9-1.5,2.8-3.6c-0.2-5.8,0-11.6,0-17.3c0-11.6,0-23.2,0-34.8
			c0-1.9,0.7-5.1-0.2-6.8c-0.8-1.6-3.6-3.2-5.4-3.1c-1.7,0-3.7,1.1-4.6,2.6c-0.4,0.7-0.6,1.5-0.6,2.3c-0.1,1.2-0.4,2.1-0.6,3.3
			c-0.2,2.3,0.1,3.9-0.8,6.1c-0.7,1.8-1.5,3.6-2.6,5.3c-2.6,4-6,5.5-10.6,5.7c-5.7,0.3-11.5,0.4-17.2,0.3c-2.8,0-5.6-0.1-8.4-0.3
			c-2-0.1-4.9,0.3-5.8-1.9c-0.7-1.7-0.3-4.1-0.3-5.9c0-3,0-6,0-9c0-6,0-11.9,0-17.9c0-5.6,0-11.3,0-16.9c0-2.8-0.1-5.7,0-8.5
			c0.1-2.6,1-3.3,3.6-3.4c11.4-0.5,22.8-0.5,34.1-0.1c2.8,0.1,5.3,0.1,7.8,1.4c2.2,1.1,4.6,2,6.5,3.7c3.2,2.8,5.3,6.6,6.9,10.6
			c1.4,3.5,1.7,8.2,4.5,10.9c1.5,1.5,4.4,2.3,6.4,1.3c1.9-1,2.4-3.4,2.3-5.4c-0.1-1.7-0.4-3.5-0.5-5.2c-0.1-0.8-0.3-1.5-0.3-2.3
			c0-1,0.4-2.1,0-3c-0.4-0.9-1.2-1.3-1.4-2.3c-0.2-1,0.2-2.1,0-3.1c-0.2-1-0.5-1.6-0.5-2.6c0-1,0.2-1.7-0.2-2.6
			c-0.5-1.2-1.2-1.6-1.3-2.9c-0.1-1,0-2-0.2-3.1c-0.3-2-0.5-4.7-1.7-6c-2.6-5-10.4-3.4-15-3.4c-7.2,0-14.5,0-21.7,0
			c-14.5,0-29,0-43.5,0c-7.1,0-14.2,0-21.2,0c-3.5,0-6.9,0-10.4,0c-3.1,0-6.5-0.5-9.6-0.1c-5.5,0.6-6.2,9.1-0.5,10
			c5.3,0.9,10.7-0.4,16,0.7c8.5,1.9,12.1,8.6,12.5,16.8c0.7,13.8,0.1,27.9,0.1,41.7c0,14.5,0,29.1,0,43.6c0,7.3,0,14.5,0,21.8
			c0,6.4,0.6,13.1-1.1,19.4c-1.1,4.2-3.2,8.2-6.9,10.7c-4.2,2.9-9.4,3.4-14.4,3.4c-15.7,0-31.5,0.5-47.2-0.2
			c8-15.6,11.6-32.9,12.5-50.3c1-18.6,0.3-37.5,0.3-56.1c0-9.5,0-19.1,0-28.6c0-4.8,0-9.5,0-14.3c0-4.1-0.3-8.3,0.2-12.4
			c1.7-12.9,13.2-20.7,25.8-20.4c3.7,0.1,8.5-0.8,9.5-5.1c0.7-3.4-2.3-5.3-5.4-5.3c-9.6,0.2-19.2,0-28.8,0c-19.2,0-38.3,0-57.5,0
			c-3.9,0-9.2-1.3-11,3.2c-0.6,1.4-0.3,2.8,0.6,4.1c1.4,2,3.3,2.2,5.6,2.1c2.1-0.1,4,0.2,6,0.5c0.9,0.1,1.5,0.5,2.4,0.5
			c1,0,1.8-0.1,2.8,0.1c3,0.8,6.2,2,8.8,3.6c4.9,3.1,8,7.9,9.2,13.5c0.8,3.6,0.6,7.4,0.7,11.1c0,4.9,0,9.9,0.1,14.8
			c0,19.1-0.1,38.2-0.1,57.4c0,4.9,0.1,9.9,0,14.8c-0.1,2.1-0.3,4.3-0.3,6.4c0,2.3,0.2,4.5-0.1,6.8c-0.3,1.9-0.6,3.9-0.8,5.8
			c-0.2,2,0.3,4.1,0,6.1c-0.5,3.4-1.3,6.8-1.6,10.2c-0.2,1.6-0.3,3.2-0.8,4.7c-0.4,1.3,0,3.3-0.8,4.5c-1.1,0.6-0.3,2.1-0.7,3.1
			c-0.2,0.6-0.9,0.9-1.1,1.6c-0.3,0.8,0.1,1.7,0,2.5c-0.1,1.7-1.1,3.6-1.6,5.2c-0.5,1.7-1.2,3.3-1.8,4.9
			c-2.4,7.4-6.4,14.6-10.9,21.1c-4.7,6.7-10.4,13.4-17,18.3c-3.5,2.6-6.8,5.1-10.6,7.2c-3.7,2-7.5,5-11.5,6.1c-4,1.2-7.4,3.3-11.2,5
			c-2.2,0.9-4.3,1.6-6.6,2.3c-1.7,0.5-3.8,0.8-5.3,1.8c-1.9,0.9-3.9,1.5-5.4,3.1c-1.5,1.6-1.9,5.6-0.5,7.3c1.7,2,4.9,1.3,7.2,1.4
			c2,0,4.1-0.2,5.9-0.6c1-0.2,1.8-0.2,2.8-0.3c1.3-0.1,1.8-0.8,2.9-1.2c2.8-1.1,5.9-1.5,8.8-2.3c5.9-1.6,11.5-3.7,17-6.2
			c5.7-2.6,10.7-6.1,16-9.4c2.7-1.7,5.4-3.4,8.1-5c2.3-1.4,3.6-3.1,5.5-4.9c1.9-1.9,4.2-3.3,6.5-4.8c0.9-0.6,1.4-1.4,2.2-2.2
			c0.8-0.9,1.8-1.5,2.7-2.3c2-1.8,3-4.2,4.9-6.1c0.8-0.8,1.8-1.4,2.6-2.3c1-1,1.6-2.3,2.5-3.4c0.8-1,1.8-1.7,2.5-2.8
			c1-1.5,1.4-1.8,3.3-2.1c3-0.4,6.3-0.1,9.3-0.1c6.6,0,13.2,0,19.8,0c13.2,0,26.4,0,39.7,0c26.4,0,52.9,0,79.3,0
			c7.3,0,14.5,0,21.8,0c3,0,6.3,0.4,9.2-0.5c1.4-0.4,2.5-1.3,3.8-2c1.5-0.9,3.1-1.5,4.6-2.4c6-3.3,11.4-7.9,17-11.8
			C229.4,416.1,235.4,412.8,240.1,408.1C240.5,407.3,237.9,410.4,240.1,408.1z"/>
		<path class="st0" d="M321.2,432.7C321.2,432.8,321.1,432.9,321.2,432.7L321.2,432.7z"/>
		<path class="st0" d="M340.6,295.2c1.8-2,0.2-4.4-0.4-6.5c-0.7-2.7-0.7-5.8-1.5-8.6c-0.3-1.3-0.8-2.4-1.1-3.7
			c-0.2-1.2,0.1-2.2-0.4-3.4c-0.3-0.8-0.5-1.3-0.6-2.3c-0.1-1.5-0.5-2-1.1-3.4c-0.8-1.9-0.7-4.2-1.4-6.2c-0.8-2.2-2.9-4.4-5.1-4.9
			c-1.2-0.3-2.9,0.1-4.1,0.1c-2,0-4,0-6,0c-3.8,0-7.6,0-11.4,0c-15.4,0-30.8,0-46.1,0c-7.6,0-15.2,0-22.8,0c-3.6,0-7.3,0-10.9,0
			c-3.4,0-7.3-0.6-10.3,1.3c-2.3,1.5-2.6,4.7-3,7.2c-0.3,1.4-0.4,2.9-0.7,4.4c-0.3,1.6-0.9,3.4-1.2,5.1c-0.3,1.4-0.4,2.9-0.7,4.3
			c-0.3,1.3-0.7,2.8-1,4.2c-0.6,3.2-1.4,6.5-1.5,9.8c0,1.3-0.2,3.7,0.6,4.7c0.7,0.9,2.5,1.4,3.6,1.5c2.9,0.2,4.6-2,5.5-4.5
			c1.8-5.3,2.5-10.9,5.2-15.9c2.7-5.1,7-7.5,12.6-7.8c3.5-0.2,7-0.3,10.5-0.3c3.3,0,8.5-0.6,11.1,1.2c1.4,0.9,1.5,1.7,1.7,3.2
			c0.2,1.5,0.7,2.8,0.8,4.4c0.2,3.8,0.1,7.7,0.1,11.6c0,7.6,0,15.2,0,22.8c0,30.4,0.3,60.8-0.3,91.1c0,1.5-0.5,2.8-0.6,4.3
			c-0.1,1.6,0.3,3.1-0.1,4.7c-0.6,2.2-2,4.6-3.3,6.5c-1.8,2.8-4.2,4.7-7.6,5.2c-2,0.3-4,0.3-6.1,0.3c-3.3-0.1-6.7,0.3-10.1,0.3
			c-3.4,0-6.7,0.7-6.8,4.7c-0.1,3.5,2.5,5.7,5.8,5.7c15,0,30,0,45,0c7.6,0,15.1,0,22.7,0c3.6,0,7.2,0,10.8,0c3.1,0,6,0.6,8.7-1.2
			c2.1-1.5,2.9-4.6,1.4-6.6c-2.2-2.9-4.4-2.6-7.8-2.6c-6.3,0-13.2,1.1-18.5-3c-4.7-3.6-4.9-9.6-4.9-15c0-7.6,0-15.2,0-22.7
			c0-30.3,0-60.6,0-90.9c0-3.6,0-7.2,0-10.9c0-3.2-0.8-7.6,0.4-10.6c1.1-2.7,5-2,7.6-2.1c3.9-0.2,7.7-0.2,11.6,0
			c1.9,0.1,3.9,0,5.8,0.3c1.6,0.3,2.9,1,4.4,1.7c2.7,1.4,4.9,3.7,6.2,6.4c0.4,0.9,1.1,1.8,1.5,2.6c0.3,0.7,0.4,2,0.6,2.8
			c0.9,3.4,1.6,6.8,2.9,10.2C332.6,299.3,338,300.6,340.6,295.2C343,292.6,339.6,297.3,340.6,295.2z"/>
		<path class="st0" d="M674.5,337c-0.9-1.6-0.3-3.3-0.3-4.9c0-0.9-0.4-1.6-0.7-2.4c-0.4-1.2-0.7-2.4-1-3.6c-0.9-4-1.4-8.5-3-12.3
			c-3.1-7.1-7-14.2-11.8-20.4c-4.8-6.2-10.4-11.7-16.6-16.6c-6.9-5.4-14.2-9.1-22.4-12.1c-4.3-1.6-9-3.4-13.5-4c-2-0.3-3.6-1-5.4-1
			c-1.9,0-3.9-0.4-5.4-0.8c-5.1-0.2-10.2,0-15.2,0.3c-2.2,0.1-4.6,0.2-6.7,0.7c-1.9,0.5-4.2,0.5-6.2,1c-4.2,1-8.4,2.6-12.4,4
			c-4.1,1.5-8.4,3.2-11.9,5.9c-1.6,1.2-3.1,1.6-4.8,2.5c-2,1.1-3.8,2.8-5.5,4.2c-3.5,2.8-6.7,5.8-9.8,9.1c-1.4,1.5-3,3-3.9,4.8
			c-0.9,1.9-2,2.4-3.3,3.8c-2.8,3.2-4.8,7.4-6.7,11.1c-1,2-1.2,4.2-2.4,6c-1.2,1.9-2.3,3.9-3,6.1c-1.6,5.4-2.2,11.3-3.3,16.8
			c0.5-4.9,1-9.8,2.9-14.4c-2.9,4.3-2.9,9-2.9,14c0,5.4-0.2,10.8-0.2,16.2c-0.5-4.4-0.5-8.8,0-13.2c-1.4,4.8-0.6,8.8,0,13.6
			c0.4,2.9-1,7.7,1.2,10c-1.4-2.2,0-4.8-1-7.1c1.3,2.8,0.8,5.9,1.3,8.8c0.5,3,1.2,6,2.1,9c0.9,2.8,1.9,5.5,3.1,8.2
			c1.2,2.6,3,4.6,3.7,7.4c-1.2-1.7-1.8-3.6-2.8-5.4c0,1.2,0.2,2.3,0.8,3.4c0.2,0.4,2,1.9,2,2.1c0.9,1.5,1.4,3,2.3,4.5
			c1.1,1.7,2.1,3.4,3.3,5.1c2.4,3.5,5.1,6.9,8,10c5.7,6.1,12.7,11.5,20,15.6c7.5,4.3,15.3,6.5,23.5,8.9c0.8,0.2,1.4,0.6,2.3,0.7
			c0.9,0.1,1.8-0.1,2.7,0.1c1.1,0.2,2.1,0.6,3.2,0.9c4.5,0.9,9.1,0.6,13.6,1.4c-0.7,5.1-6.2,6.6-10.4,7.7c-0.9,0.2-2,0.8-2.8,1
			c-1,0.2-2.7,0.1-3.8,0.1c-3.1,0.2-6.2,0.3-9.3,0.2c-10.4-0.3-20.6-2.7-30.1-6.9c-9-4-17.3-9.6-25-15.8c-1.8-1.5-3.3-3.4-5.3-4.7
			c-2.3-1.5-4.5-3.1-6.5-4.9c-4-3.6-7.6-7.5-11.4-11.4c-2.1-2.2-4.2-4.4-6.4-6.5c-2.1-2-4.7-3.6-6.7-5.6c-2.1-2.1-3.8-4.5-5.9-6.6
			c-2.5-2.6-5-5.1-7.5-7.7c3.7,3.6,7.6,7.1,10.8,11.1c-3.1-6.1-8.7-9-13.4-13.5c-2.5-2.4-5-4.9-7.2-7.6c-1.2-1.4-2.4-2.6-3.7-3.9
			c-1.3-1.3-2.8-2.1-4-3.4c-1.4-1.4-2.4-3.9-0.2-5.1c2.2-1.2,5.2-1,7.4-1.8c6.1-2.1,11.8-6.3,16.5-10.7c4.2-3.9,7.7-8.5,10.3-13.7
			c3.1-6.2,4.8-12.6,4.8-19.5c0-3.2,0.4-6.8-0.2-9.9c-0.7-3.5-1.9-7.1-3.4-10.4c-2.4-5.4-5.8-10.4-10-14.5
			c-4.2-4.1-9.2-7.5-14.6-9.7c-1.5-0.6-3.1-1.5-4.7-1.6c-0.6-0.1-1.3,0.2-1.9,0c-0.7-0.2-1.1-0.6-1.9-0.8c-1.4-0.4-2.9-0.3-4.3-0.6
			c-1.7-0.4-3.7-0.3-5.6-0.3c-16.2-0.1-32.4-0.1-48.7-0.2c-7.9,0-15.9-0.1-23.8-0.1c-2,0-4,0-6,0c-1.7,0-4.4-0.6-6,0
			c-3.6,1.2-4.2,5.4-2.2,8.3c1.7,2.5,6,1.7,8.7,1.7c4.2,0,6.9,1.1,10.2,3.7c2.5,2,3.6,3.7,4.5,6.8c0.4,1.3,1.2,2.4,1.6,3.6
			c0.6,1.6,0.3,3.9,0.3,5.6c0,32.4,0,64.7,0,97.1c0,8.3,0,16.5,0,24.8c0,5.2-1.6,10.4-6.1,13.6c-2.8,2-5.6,3.1-9,3.3
			c-3.9,0.3-7.9-0.5-11.7,0.2c-2.3,0.5-4.7,2.1-4.8,4.7c-0.1,2.4,1.7,4.7,4,5.3c3.3,0.9,7.5,0.2,11,0.2c4.3,0,8.6,0,12.9,0
			c8,0,15.9,0,23.9,0c8.3,0,16.6,0,24.9,0c2,0,4,0,6,0c1.1,0,2.8,0.3,3.8-0.2c0.8-0.4,1.6-1.6,2-2.2c0.8-1.4,1.2-2.8,0.1-4.2
			c-0.9-1.2-2.6-2-3.8-2.9c-1.4-1-1.9-0.9-3.6-0.8c-3.7,0.2-7.9,0.3-11.6-0.2c-1.6-0.2-2.5-0.2-3.6-1.1c-1.4-1.1-2.7-2.6-3.9-3.9
			c-2.4-2.6-2.1-6.9-2.5-10.3c-0.9-7.7-0.5-15.6-0.5-23.4c0-8.1,0.2-16.3,0-24.4c-0.1-1.9-0.8-6.9,1.9-7.3c2.8-0.4,5.7,4.5,7.3,6.1
			c5.3,5.3,10.9,10.4,16.4,15.5c11.2,10.5,22.5,20.8,33.3,31.6c5.1,5.1,10.2,10.3,15.6,15.1c5.7,5,11.9,9.3,18.1,13.5
			c2.8,1.9,5.7,3.6,8.8,5c1.5,0.7,3.1,1.2,4.5,2c1.1,0.7,2.1,1.5,3.3,2.1c3.2,1.4,6.5,2.7,9.8,4c1.7,0.7,3.4,1.3,5.2,1.8
			c2,0.6,4.3,0.7,6.2,1.4c0.6,0.2,0.9,0.5,1.6,0.6c0.6,0.1,1.2-0.2,1.8,0c1.3,0.3,1.8,1.3,3.3,1.3c1.4,0.1,2.6,0.5,4,0.6
			c1.5,0.1,3.1-0.4,4.5,0.3c3.7,0.2,7.9,1,11.8,1.3c2,0.1,4,0.1,6,0.2c1.9,0.1,3.9,0.5,5.6-0.6c2.1-0.7,5.1,0,7.6-0.7
			c1.5-0.4,3.2-0.2,4.9-0.5c0.8-0.1,1-0.6,1.6-0.9c0.7-0.3,1.6-0.4,2.3-0.6c1.7-0.4,3.4-0.9,5.1-1.3c1.4-0.4,2.9-0.7,4.3-1
			c0.7-0.2,1.5-0.4,2.2-0.8c0.6-0.3,1.1-1.1,1.7-1.4c0.8-0.4,1.8-0.3,2.7-0.7c1.4-0.5,2.3-1.2,3.5-2c2.9-2,6-3.7,9-5.4
			c2.3-1.4,3.9-3.5,5.7-5.5c2.1-2.3,4.2-4.6,6.3-6.8c4.1-4.2,8.5-8.3,13.6-11.3c2.3-1.4,4.6-2.4,6.6-4.4c2.4-2.4,4.6-5,6.8-7.6
			c4.2-4.9,7.9-10.2,11.7-15.4c1-1.4,2-3.5,2.7-5.1c0.5-1.2,0.6-2.2,1-3.4c0.4-1.5,1.7-2.9,2.4-4.3c1.6-3.2,2.5-6.6,3.3-10
			c0.4-1.6,0.6-3.2,0.7-4.9c0-1.9,0.8-2.6,1.4-4.3c0.5-1.4,0.1-2.9,0.1-4.4c0.1-1.7,0.4-3.3,0.4-5
			C674.5,345.3,674.5,341.1,674.5,337C673.2,334.6,674.5,342.1,674.5,337z M418.4,338.3c-4.4,0.1-8.8-0.1-13.2-0.2
			c-2.1-0.1-4.9-0.1-6.4-1.9c-1.6-2.1-1.2-5.6-1.2-8.1c-0.1-4.8-0.1-9.6,0-14.4c0-8.9-0.1-17.6-0.1-26.6c0-3.8-0.5-7.9,0.4-11.6
			c0.5-2.1,1.6-3.5,3.6-4.2c3.2-1.1,6.9-0.6,10.2-0.6c4,0,8.1-0.2,12,0.6c6.3,1.1,12.2,4.1,16.8,8.4c9.9,9.2,12,22.9,7.9,35.5
			C444.1,328.2,432.5,337.9,418.4,338.3C414,338.4,437.1,337.7,418.4,338.3z M641.7,384.7c-4.8,11.7-12.9,21.9-23.9,28.2
			c-9.8,5.6-21.4,7.8-32.6,6.5c-27.3-3.2-47.5-25.9-55.2-51.1c-4.7-15.3-6.2-32.3-2.1-47.9c3.8-14.2,11.6-27.7,23.3-36.7
			c20.2-15.6,48.2-14.5,68,1.3c25.4,20.3,34,56,26.6,86.7C644.8,376.2,643.4,380.5,641.7,384.7C625.1,425.1,646.2,373.7,641.7,384.7
			z"/>
		<path class="st0" d="M352.3,257.1c14.5,0,29,0,43.6,0c7.3,0,14.5,0,21.8,0c3.5,0,6.9,0,10.4,0c1.8,0,3.6,0.1,5.4,0
			c1.2-0.1,2.6-0.4,3.6,0.6c0,0,0,0,0,0c0,0,0,0,0,0c-1.3-3.1-3.5-1.3-5.8-0.9c-3.5,0.6-7.7,0-11.2-0.1c-8.4-0.1-16.7-0.1-25.1-0.1
			c-8.2,0-16.4,0-24.6,0c-4.1,0-8.2,0-12.3,0c-1.9,0-3.7,0.1-5.6,0c-1.7-0.1-3.4-0.4-4.7,0.8C349.1,256.9,350.8,257.2,352.3,257.1
			C379.4,257.1,350.8,257.2,352.3,257.1z"/>
		<path class="st0" d="M594.4,258.7c-7.3-2.3-14.5-1.3-21.6,0.7C580,258.3,587.2,257.1,594.4,258.7z"/>
		<path class="st0" d="M478.7,310.3c1.3-4.4,1.4-8.8,0-13.2C479.3,301.6,479.3,306,478.7,310.3z"/>
		<path class="st0" d="M446.3,349.8c2.8,0.2,5.5,0.1,6.7-3.1C451.4,349.1,448.6,348.9,446.3,349.8z"/>
		<path class="st0" d="M476.5,288.8c0,0.6,1.2,2.2,1.4,3c0.3,1.3,0.3,2.7,0.6,4C478.5,293.2,479.1,290.4,476.5,288.8
			C476.5,288.8,479.2,290.5,476.5,288.8z"/>
		<path class="st0" d="M446.5,362.3c-0.2-2.4-1.5-3.7-3.9-3.8C444.4,359.3,445.6,360.6,446.5,362.3z"/>
		<path class="st0" d="M538,272.6c1.6-1,3-2.4,4.9-2.7C540.5,269.5,539,270.7,538,272.6z"/>
		<path class="st0" d="M452.1,261.8c-1.1-2.7-3.5-2.3-5.7-2.3C448.3,260.4,450.7,259.8,452.1,261.8z"/>
		<path class="st0" d="M601.1,259.5c-2-1.7-4.4-0.7-6.7-0.8C596.3,259.9,599,258.4,601.1,259.5C599,257.7,599,258.3,601.1,259.5z"/>
		<path class="st0" d="M442.7,258.8c-1.4-2.1-3.6-0.9-5.7-1.1C437.5,258.8,441.6,257.7,442.7,258.8
			C441.2,256.6,441.1,257.1,442.7,258.8z"/>
		<path class="st0" d="M437,257.7C437.1,257.7,437,257.7,437,257.7L437,257.7z"/>
		<path class="st0" d="M505,313c1-1.4,1-3.2,2-4.5C505.4,309.6,505,311.2,505,313z"/>
		<path class="st0" d="M515.4,294.3c0.9-1.3,2-2.5,2.9-3.7C516.7,291.3,515.5,292.4,515.4,294.3z"/>
		<path class="st0" d="M477.2,316.8c2.2-1,1-3,1.3-4.9C478.1,313.4,478.7,315.9,477.2,316.8C479.6,315.7,478.6,316,477.2,316.8z"/>
		<path class="st0" d="M634.9,272c-0.4-2.1-2-2.2-3.7-2.2C632.4,270.7,634.2,270.5,634.9,272z"/>
		<path class="st0" d="M606.6,260.7c-1.2-2.1-3.2-0.9-4.9-1.1C603.2,260.6,605.3,259.1,606.6,260.7z"/>
		<path class="st0" d="M572.1,259.6c-1.7,0.1-3.5-0.7-4.9,0.8C568.7,259.4,570.6,260.5,572.1,259.6z"/>
	</g>
	<g>
		<path class="st1" d="M-179.8,519h5.3v27.3c0,10.8-5.3,14.1-12.3,14.1c-1.9,0-4.3-0.4-5.6-1l0.8-4.3c1.1,0.4,2.7,0.8,4.4,0.8
			c4.7,0,7.5-2.1,7.5-10.1V519z"/>
		<path class="st1" d="M-159.1,546.9l-4.2,12.8h-5.4L-155,519h6.3l13.9,40.7h-5.6l-4.4-12.8H-159.1z M-145.8,542.8l-4-11.7
			c-0.9-2.7-1.5-5.1-2.1-7.4h-0.1c-0.6,2.4-1.3,4.9-2.1,7.4l-4,11.8H-145.8z"/>
		<path class="st1" d="M-128.7,519.4c2.5-0.4,5.9-0.8,10.1-0.8c5.2,0,9,1.2,11.4,3.4c2.2,1.9,3.6,4.9,3.6,8.5c0,3.7-1.1,6.6-3.1,8.7
			c-2.8,3-7.3,4.5-12.5,4.5c-1.6,0-3-0.1-4.2-0.4v16.3h-5.3V519.4z M-123.5,539.1c1.1,0.3,2.6,0.4,4.4,0.4c6.3,0,10.2-3.1,10.2-8.7
			c0-5.4-3.8-8-9.6-8c-2.3,0-4,0.2-5,0.4V539.1z"/>
		<path class="st1" d="M-95.1,546.9l-4.2,12.8h-5.4l13.8-40.7h6.3l13.9,40.7h-5.6l-4.4-12.8H-95.1z M-81.7,542.8l-4-11.7
			c-0.9-2.7-1.5-5.1-2.1-7.4h-0.1c-0.6,2.4-1.3,4.9-2.1,7.4l-4,11.8H-81.7z"/>
		<path class="st1" d="M-64.7,559.7V519h5.7l13.1,20.6c3,4.8,5.4,9.1,7.3,13.2l0.1-0.1c-0.5-5.4-0.6-10.4-0.6-16.7v-17h5v40.7h-5.3
			L-52.3,539c-2.8-4.5-5.6-9.2-7.6-13.6l-0.2,0.1c0.3,5.1,0.4,10,0.4,16.8v17.4H-64.7z"/>
		<path class="st1" d="M9,540.6H-6.8v14.7h17.6v4.4h-22.9V519h22v4.4H-6.8v12.9H9V540.6z"/>
		<path class="st1" d="M40,559.7l-5.2-9c-2.1-3.4-3.4-5.7-4.7-8h-0.1c-1.1,2.4-2.3,4.5-4.4,8.1l-4.9,8.9h-6L27,539.1l-12-20.1h6.1
			l5.4,9.5c1.5,2.7,2.7,4.7,3.7,6.9h0.2c1.1-2.4,2.2-4.3,3.7-6.9l5.6-9.5h6l-12.4,19.8l12.7,20.9H40z"/>
		<path class="st1" d="M60.4,523.4H48V519h30.2v4.5H65.7v36.3h-5.3V523.4z"/>
		<path class="st1" d="M103.8,540.6H88v14.7h17.6v4.4H82.7V519h22v4.4H88v12.9h15.8V540.6z"/>
		<path class="st1" d="M112.4,519.5c2.7-0.5,6.5-0.8,10.1-0.8c5.6,0,9.2,1,11.8,3.3c2.1,1.8,3.2,4.6,3.2,7.7c0,5.4-3.4,8.9-7.7,10.4
			v0.2c3.1,1.1,5,4,6,8.2c1.3,5.7,2.3,9.6,3.1,11.2h-5.4c-0.7-1.1-1.6-4.7-2.7-9.7c-1.2-5.6-3.4-7.7-8.2-7.9h-5v17.6h-5.3V519.5z
			 M117.7,538.1h5.4c5.6,0,9.2-3.1,9.2-7.7c0-5.3-3.8-7.6-9.4-7.6c-2.5,0-4.4,0.2-5.2,0.5V538.1z"/>
		<path class="st1" d="M145,559.7V519h5.7l13.1,20.6c3,4.8,5.4,9.1,7.3,13.2l0.1-0.1c-0.5-5.4-0.6-10.4-0.6-16.7v-17h5v40.7h-5.3
			L157.3,539c-2.8-4.5-5.6-9.2-7.6-13.6l-0.2,0.1c0.3,5.1,0.4,10,0.4,16.8v17.4H145z"/>
		<path class="st1" d="M191.3,546.9l-4.2,12.8h-5.4l13.8-40.7h6.3l13.9,40.7h-5.6l-4.4-12.8H191.3z M204.7,542.8l-4-11.7
			c-0.9-2.7-1.5-5.1-2.1-7.4h-0.1c-0.6,2.4-1.3,4.9-2.1,7.4l-4,11.8H204.7z"/>
		<path class="st1" d="M221.7,519h5.3v36.3h17.4v4.4h-22.7V519z"/>
		<path class="st1" d="M268.3,523.4h-12.4V519h30.2v4.5h-12.5v36.3h-5.3V523.4z"/>
		<path class="st1" d="M290.6,519.5c2.7-0.5,6.5-0.8,10.1-0.8c5.6,0,9.2,1,11.8,3.3c2.1,1.8,3.2,4.6,3.2,7.7c0,5.4-3.4,8.9-7.7,10.4
			v0.2c3.1,1.1,5,4,6,8.2c1.3,5.7,2.3,9.6,3.1,11.2h-5.4c-0.7-1.1-1.6-4.7-2.7-9.7c-1.2-5.6-3.4-7.7-8.2-7.9h-5v17.6h-5.3V519.5z
			 M295.9,538.1h5.4c5.6,0,9.2-3.1,9.2-7.7c0-5.3-3.8-7.6-9.4-7.6c-2.5,0-4.4,0.2-5.2,0.5V538.1z"/>
		<path class="st1" d="M330,546.9l-4.2,12.8h-5.4l13.8-40.7h6.3l13.9,40.7h-5.6l-4.4-12.8H330z M343.4,542.8l-4-11.7
			c-0.9-2.7-1.5-5.1-2.1-7.4h-0.1c-0.6,2.4-1.3,4.9-2.1,7.4l-4,11.8H343.4z"/>
		<path class="st1" d="M360.5,519.5c3.2-0.5,7-0.8,11.2-0.8c7.6,0,12.9,1.8,16.5,5.1c3.6,3.3,5.7,8,5.7,14.6
			c0,6.6-2.1,12.1-5.9,15.8c-3.8,3.8-10.1,5.9-18,5.9c-3.7,0-6.9-0.2-9.5-0.5V519.5z M365.7,555.5c1.3,0.2,3.3,0.3,5.3,0.3
			c11.2,0,17.3-6.3,17.3-17.3c0.1-9.6-5.4-15.7-16.5-15.7c-2.7,0-4.8,0.2-6.2,0.5V555.5z"/>
		<path class="st1" d="M421.8,540.6H406v14.7h17.6v4.4h-22.9V519h22v4.4H406v12.9h15.8V540.6z"/>
		<path class="st1" d="M478.1,538.9c0,14-8.5,21.5-18.9,21.5c-10.8,0-18.3-8.3-18.3-20.7c0-12.9,8-21.4,18.9-21.4
			C470.9,518.3,478.1,526.8,478.1,538.9z M446.5,539.6c0,8.7,4.7,16.5,13,16.5c8.3,0,13.1-7.7,13.1-16.9c0-8.1-4.2-16.6-13-16.6
			C450.8,522.6,446.5,530.6,446.5,539.6z"/>
		<path class="st1" d="M484.9,519.5c2.7-0.5,6.5-0.8,10.1-0.8c5.6,0,9.2,1,11.8,3.3c2.1,1.8,3.2,4.6,3.2,7.7c0,5.4-3.4,8.9-7.7,10.4
			v0.2c3.1,1.1,5,4,6,8.2c1.3,5.7,2.3,9.6,3.1,11.2H506c-0.7-1.1-1.6-4.7-2.7-9.7c-1.2-5.6-3.4-7.7-8.2-7.9h-5v17.6h-5.3V519.5z
			 M490.2,538.1h5.4c5.6,0,9.2-3.1,9.2-7.7c0-5.3-3.8-7.6-9.4-7.6c-2.5,0-4.4,0.2-5.2,0.5V538.1z"/>
		<path class="st1" d="M548.6,557.9c-2.4,0.8-7,2.2-12.5,2.2c-6.2,0-11.2-1.6-15.2-5.4c-3.5-3.4-5.7-8.8-5.7-15.2
			c0.1-12.1,8.4-21,22.1-21c4.7,0,8.4,1,10.2,1.9l-1.3,4.3c-2.2-1-4.9-1.8-9-1.8c-9.9,0-16.4,6.2-16.4,16.4
			c0,10.3,6.2,16.4,15.7,16.4c3.4,0,5.8-0.5,7-1.1v-12.1h-8.3v-4.2h13.4V557.9z"/>
		<path class="st1" d="M563.2,546.9l-4.2,12.8h-5.4l13.8-40.7h6.3l13.9,40.7H582l-4.4-12.8H563.2z M576.6,542.8l-4-11.7
			c-0.9-2.7-1.5-5.1-2.1-7.4h-0.1c-0.6,2.4-1.3,4.9-2.1,7.4l-4,11.8H576.6z"/>
		<path class="st1" d="M593.7,559.7V519h5.7l13.1,20.6c3,4.8,5.4,9.1,7.3,13.2l0.1-0.1c-0.5-5.4-0.6-10.4-0.6-16.7v-17h5v40.7h-5.3
			L606,539c-2.8-4.5-5.6-9.2-7.6-13.6l-0.2,0.1c0.3,5.1,0.4,10,0.4,16.8v17.4H593.7z"/>
		<path class="st1" d="M638.7,519v40.7h-5.3V519H638.7z"/>
		<path class="st1" d="M645.1,556.6l22.6-33.1v-0.2H647V519h27.5v3.2L652,555.1v0.2h22.8v4.4h-29.7V556.6z"/>
		<path class="st1" d="M687.9,546.9l-4.2,12.8h-5.4l13.8-40.7h6.3l13.9,40.7h-5.6l-4.4-12.8H687.9z M701.2,542.8l-4-11.7
			c-0.9-2.7-1.5-5.1-2.1-7.4H695c-0.6,2.4-1.3,4.9-2.1,7.4l-4,11.8H701.2z"/>
		<path class="st1" d="M721.4,523.4H709V519h30.2v4.5h-12.5v36.3h-5.3V523.4z"/>
		<path class="st1" d="M748.9,519v40.7h-5.3V519H748.9z"/>
		<path class="st1" d="M792.9,538.9c0,14-8.5,21.5-18.9,21.5c-10.8,0-18.3-8.3-18.3-20.7c0-12.9,8-21.4,18.9-21.4
			C785.8,518.3,792.9,526.8,792.9,538.9z M761.3,539.6c0,8.7,4.7,16.5,13,16.5c8.3,0,13.1-7.7,13.1-16.9c0-8.1-4.2-16.6-13-16.6
			C765.7,522.6,761.3,530.6,761.3,539.6z"/>
		<path class="st1" d="M799.8,559.7V519h5.7l13.1,20.6c3,4.8,5.4,9.1,7.3,13.2l0.1-0.1c-0.5-5.4-0.6-10.4-0.6-16.7v-17h5v40.7H825
			L812.1,539c-2.8-4.5-5.6-9.2-7.6-13.6l-0.2,0.1c0.3,5.1,0.4,10,0.4,16.8v17.4H799.8z"/>
	</g>
</g>
</svg>
