<?xml version="1.0" encoding="utf-8"?>
<!-- Generator: Adobe Illustrator 19.0.0, SVG Export Plug-In . SVG Version: 6.00 Build 0)  -->
<svg version="1.1" id="Layer_1" xmlns="http://www.w3.org/2000/svg" xmlns:xlink="http://www.w3.org/1999/xlink" x="0px" y="0px"
	 viewBox="0 0 595.3 841.9" style="enable-background:new 0 0 595.3 841.9;" xml:space="preserve">
<style type="text/css">
	.st0{fill:#FFFFFF;}
	.st1{clip-path:url(#XMLID_2_);fill:#E48C00;}
	.st2{clip-path:url(#XMLID_2_);fill:#E48D00;}
	.st3{clip-path:url(#XMLID_2_);fill:#E48E00;}
	.st4{clip-path:url(#XMLID_2_);fill:#E58E00;}
	.st5{clip-path:url(#XMLID_2_);fill:#E58F00;}
	.st6{clip-path:url(#XMLID_2_);fill:#E59000;}
	.st7{clip-path:url(#XMLID_2_);fill:#E59100;}
	.st8{clip-path:url(#XMLID_2_);fill:#E69100;}
	.st9{clip-path:url(#XMLID_2_);fill:#E69102;}
	.st10{clip-path:url(#XMLID_2_);fill:#E69202;}
	.st11{clip-path:url(#XMLID_2_);fill:#E69301;}
	.st12{clip-path:url(#XMLID_2_);fill:#E79303;}
	.st13{clip-path:url(#XMLID_2_);fill:#E79403;}
	.st14{clip-path:url(#XMLID_2_);fill:#E79505;}
	.st15{clip-path:url(#XMLID_2_);fill:#E79607;}
	.st16{clip-path:url(#XMLID_2_);fill:#E79707;}
	.st17{clip-path:url(#XMLID_2_);fill:#E7970A;}
	.st18{clip-path:url(#XMLID_2_);fill:#E89809;}
	.st19{clip-path:url(#XMLID_2_);fill:#E8990C;}
	.st20{clip-path:url(#XMLID_2_);fill:#E89A0B;}
	.st21{clip-path:url(#XMLID_2_);fill:#E89A0E;}
	.st22{clip-path:url(#XMLID_2_);fill:#E99B0D;}
	.st23{clip-path:url(#XMLID_2_);fill:#E99B10;}
	.st24{clip-path:url(#XMLID_2_);fill:#E99C10;}
	.st25{clip-path:url(#XMLID_2_);fill:#E99D11;}
	.st26{clip-path:url(#XMLID_2_);fill:#EA9E11;}
	.st27{clip-path:url(#XMLID_2_);fill:#EA9E13;}
	.st28{clip-path:url(#XMLID_2_);fill:#EA9F13;}
	.st29{clip-path:url(#XMLID_2_);fill:#EAA015;}
	.st30{clip-path:url(#XMLID_2_);fill:#EAA115;}
	.st31{clip-path:url(#XMLID_2_);fill:#EBA216;}
	.st32{clip-path:url(#XMLID_2_);fill:#EBA318;}
	.st33{clip-path:url(#XMLID_2_);fill:#EBA419;}
	.st34{clip-path:url(#XMLID_2_);fill:#ECA519;}
	.st35{clip-path:url(#XMLID_2_);fill:#ECA51B;}
	.st36{clip-path:url(#XMLID_2_);fill:#EDA61A;}
	.st37{clip-path:url(#XMLID_2_);fill:#EDA71C;}
	.st38{clip-path:url(#XMLID_2_);fill:#EDA81E;}
	.st39{clip-path:url(#XMLID_2_);fill:#EDA91E;}
	.st40{clip-path:url(#XMLID_2_);fill:#EDA91F;}
	.st41{clip-path:url(#XMLID_2_);fill:#EDAA1F;}
	.st42{clip-path:url(#XMLID_2_);fill:#EEAB20;}
	.st43{clip-path:url(#XMLID_2_);fill:#EEAC22;}
	.st44{clip-path:url(#XMLID_2_);fill:#EEAD22;}
	.st45{clip-path:url(#XMLID_2_);fill:#EFAD23;}
	.st46{clip-path:url(#XMLID_2_);fill:#EFAE25;}
	.st47{clip-path:url(#XMLID_2_);fill:#EFAF24;}
	.st48{clip-path:url(#XMLID_2_);fill:#F0B026;}
	.st49{clip-path:url(#XMLID_2_);fill:#F0B127;}
	.st50{clip-path:url(#XMLID_2_);fill:#F0B227;}
	.st51{clip-path:url(#XMLID_2_);fill:#F0B328;}
	.st52{clip-path:url(#XMLID_2_);fill:#F0B32A;}
	.st53{clip-path:url(#XMLID_2_);fill:#F1B429;}
	.st54{clip-path:url(#XMLID_2_);fill:#F1B52B;}
	.st55{clip-path:url(#XMLID_2_);fill:#F1B62C;}
	.st56{clip-path:url(#XMLID_2_);fill:#F2B72C;}
	.st57{clip-path:url(#XMLID_2_);fill:#F2B82D;}
	.st58{clip-path:url(#XMLID_2_);fill:#F3B92E;}
	.st59{clip-path:url(#XMLID_2_);fill:#F3BA2E;}
	.st60{clip-path:url(#XMLID_2_);fill:#F3BA30;}
	.st61{clip-path:url(#XMLID_2_);fill:#F3BC31;}
	.st62{clip-path:url(#XMLID_2_);fill:#F4BD32;}
	.st63{clip-path:url(#XMLID_2_);fill:#F4BE32;}
	.st64{clip-path:url(#XMLID_2_);fill:#F4BE33;}
	.st65{clip-path:url(#XMLID_2_);fill:#F5C035;}
	.st66{clip-path:url(#XMLID_2_);fill:#F5C034;}
	.st67{clip-path:url(#XMLID_2_);fill:#F6C136;}
	.st68{clip-path:url(#XMLID_2_);fill:#F6C337;}
	.st69{clip-path:url(#XMLID_2_);fill:#F6C438;}
	.st70{clip-path:url(#XMLID_2_);fill:#F6C539;}
	.st71{clip-path:url(#XMLID_2_);fill:#F7C73B;}
	.st72{clip-path:url(#XMLID_2_);fill:#F7C73C;}
	.st73{clip-path:url(#XMLID_2_);fill:#F8C83D;}
	.st74{clip-path:url(#XMLID_2_);fill:#F8C93D;}
	.st75{clip-path:url(#XMLID_2_);fill:#F9CA3E;}
	.st76{clip-path:url(#XMLID_2_);fill:#F9CB40;}
	.st77{clip-path:url(#XMLID_2_);fill:#F9CD41;}
	.st78{clip-path:url(#XMLID_2_);fill:#F9CD42;}
	.st79{clip-path:url(#XMLID_2_);fill:#FACE42;}
	.st80{clip-path:url(#XMLID_2_);fill:#FAD043;}
	.st81{clip-path:url(#XMLID_2_);fill:#FAD044;}
	.st82{clip-path:url(#XMLID_2_);fill:#FBD246;}
	.st83{clip-path:url(#XMLID_2_);fill:#FBD247;}
	.st84{clip-path:url(#XMLID_2_);fill:#FCD347;}
	.st85{clip-path:url(#XMLID_2_);fill:#FCD548;}
	.st86{clip-path:url(#XMLID_2_);fill:#FCD549;}
	.st87{clip-path:url(#XMLID_2_);fill:#FCD74B;}
	.st88{clip-path:url(#XMLID_2_);fill:#FDD84C;}
	.st89{clip-path:url(#XMLID_2_);fill:#FDD94D;}
	.st90{clip-path:url(#XMLID_2_);fill:#FFDA4D;}
	.st91{clip-path:url(#XMLID_2_);fill:#FFDB4E;}
	.st92{clip-path:url(#XMLID_2_);fill:#FFDC50;}
	.st93{clip-path:url(#XMLID_2_);fill:#FFDD51;}
	.st94{fill-rule:evenodd;clip-rule:evenodd;fill:#CF6914;}
	.st95{fill-rule:evenodd;clip-rule:evenodd;fill:#D2790E;}
	.st96{clip-path:url(#XMLID_3_);fill:#FFDA51;}
	.st97{clip-path:url(#XMLID_3_);fill:#FFDA52;}
	.st98{clip-path:url(#XMLID_3_);fill:#FFDA53;}
	.st99{clip-path:url(#XMLID_3_);fill:#FFDB55;}
	.st100{clip-path:url(#XMLID_3_);fill:#FFDB57;}
	.st101{clip-path:url(#XMLID_4_);fill:#DF8E00;}
	.st102{clip-path:url(#XMLID_4_);fill:#E09000;}
	.st103{clip-path:url(#XMLID_4_);fill:#E19100;}
	.st104{clip-path:url(#XMLID_4_);fill:#E19200;}
	.st105{clip-path:url(#XMLID_4_);fill:#E29200;}
	.st106{clip-path:url(#XMLID_4_);fill:#E29300;}
	.st107{clip-path:url(#XMLID_4_);fill:#E29400;}
	.st108{clip-path:url(#XMLID_4_);fill:#E39500;}
	.st109{clip-path:url(#XMLID_5_);fill:#E18D00;}
	.st110{clip-path:url(#XMLID_5_);fill:#E28E00;}
	.st111{clip-path:url(#XMLID_5_);fill:#E29000;}
	.st112{clip-path:url(#XMLID_5_);fill:#E39100;}
	.st113{clip-path:url(#XMLID_5_);fill:#E39200;}
	.st114{clip-path:url(#XMLID_5_);fill:#E49300;}
	.st115{clip-path:url(#XMLID_5_);fill:#E49400;}
	.st116{clip-path:url(#XMLID_5_);fill:#E59500;}
	.st117{clip-path:url(#XMLID_5_);fill:#E59600;}
	.st118{clip-path:url(#XMLID_5_);fill:#E69700;}
	.st119{clip-path:url(#XMLID_5_);fill:#E79800;}
	.st120{clip-path:url(#XMLID_5_);fill:#E89900;}
	.st121{clip-path:url(#XMLID_5_);fill:#E89A00;}
	.st122{clip-path:url(#XMLID_5_);fill:#E89B00;}
	.st123{clip-path:url(#XMLID_5_);fill:#E99C00;}
	.st124{clip-path:url(#XMLID_5_);fill:#EA9D00;}
	.st125{clip-path:url(#XMLID_5_);fill:#EA9F00;}
	.st126{clip-path:url(#XMLID_5_);fill:#EB9F00;}
	.st127{clip-path:url(#XMLID_5_);fill:#EBA000;}
	.st128{clip-path:url(#XMLID_5_);fill:#ECA100;}
	.st129{clip-path:url(#XMLID_6_);fill:#DD8602;}
	.st130{clip-path:url(#XMLID_6_);fill:#DE8700;}
	.st131{clip-path:url(#XMLID_6_);fill:#DE8800;}
	.st132{clip-path:url(#XMLID_6_);fill:#DE8900;}
	.st133{clip-path:url(#XMLID_6_);fill:#DF8900;}
	.st134{clip-path:url(#XMLID_6_);fill:#DF8A00;}
	.st135{clip-path:url(#XMLID_6_);fill:#E08B00;}
	.st136{clip-path:url(#XMLID_6_);fill:#E08C00;}
	.st137{clip-path:url(#XMLID_6_);fill:#E18D00;}
	.st138{clip-path:url(#XMLID_6_);fill:#E28E00;}
	.st139{clip-path:url(#XMLID_6_);fill:#E29000;}
	.st140{clip-path:url(#XMLID_6_);fill:#E39100;}
	.st141{clip-path:url(#XMLID_6_);fill:#E39200;}
	.st142{clip-path:url(#XMLID_6_);fill:#E49300;}
	.st143{clip-path:url(#XMLID_6_);fill:#E49400;}
	.st144{clip-path:url(#XMLID_6_);fill:#E59500;}
	.st145{clip-path:url(#XMLID_6_);fill:#E59600;}
	.st146{clip-path:url(#XMLID_6_);fill:#E69700;}
	.st147{clip-path:url(#XMLID_6_);fill:#E79800;}
	.st148{clip-path:url(#XMLID_6_);fill:#E89900;}
	.st149{clip-path:url(#XMLID_6_);fill:#E89A00;}
	.st150{clip-path:url(#XMLID_6_);fill:#E89B00;}
	.st151{clip-path:url(#XMLID_6_);fill:#E99C00;}
	.st152{clip-path:url(#XMLID_6_);fill:#EA9D00;}
	.st153{clip-path:url(#XMLID_6_);fill:#EA9F00;}
	.st154{clip-path:url(#XMLID_6_);fill:#EB9F00;}
	.st155{clip-path:url(#XMLID_6_);fill:#EBA000;}
	.st156{clip-path:url(#XMLID_6_);fill:#ECA100;}
	.st157{clip-path:url(#XMLID_6_);fill:#ECA200;}
	.st158{clip-path:url(#XMLID_6_);fill:#EDA300;}
	.st159{clip-path:url(#XMLID_6_);fill:#EEA400;}
	.st160{clip-path:url(#XMLID_6_);fill:#EEA500;}
	.st161{clip-path:url(#XMLID_6_);fill:#EFA700;}
	.st162{clip-path:url(#XMLID_6_);fill:#F0A800;}
	.st163{clip-path:url(#XMLID_6_);fill:#F0A900;}
	.st164{clip-path:url(#XMLID_6_);fill:#F1AA00;}
	.st165{clip-path:url(#XMLID_7_);fill:#E39100;}
	.st166{clip-path:url(#XMLID_7_);fill:#E39200;}
	.st167{clip-path:url(#XMLID_7_);fill:#E49300;}
	.st168{clip-path:url(#XMLID_7_);fill:#E49400;}
	.st169{clip-path:url(#XMLID_7_);fill:#E59500;}
	.st170{clip-path:url(#XMLID_7_);fill:#E59600;}
	.st171{clip-path:url(#XMLID_7_);fill:#E69700;}
	.st172{clip-path:url(#XMLID_7_);fill:#E79800;}
	.st173{clip-path:url(#XMLID_7_);fill:#E89900;}
	.st174{clip-path:url(#XMLID_7_);fill:#E89A00;}
	.st175{clip-path:url(#XMLID_7_);fill:#E89B00;}
	.st176{clip-path:url(#XMLID_7_);fill:#E99C00;}
	.st177{clip-path:url(#XMLID_7_);fill:#EA9D00;}
	.st178{clip-path:url(#XMLID_7_);fill:#EA9F00;}
	.st179{clip-path:url(#XMLID_7_);fill:#EB9F00;}
	.st180{clip-path:url(#XMLID_7_);fill:#EBA000;}
	.st181{clip-path:url(#XMLID_7_);fill:#ECA100;}
	.st182{clip-path:url(#XMLID_7_);fill:#ECA200;}
	.st183{clip-path:url(#XMLID_7_);fill:#EDA300;}
</style>
<g id="XMLID_106_">
	<g id="XMLID_1345_">
		<path id="XMLID_1346_" class="st0" d="M932.6,537.1c7.3,46.3-20.9,89.6-75.3,116.2c-20.1,9.7-46.7,17.8-65,21.9
			c-76.2,17.8-167,19.4-262.6,4.4c-2.3-0.3-4.4-0.8-6.4-1c-27,67.9-116.4,106.8-192.7,117.2c-20.8,2.8-40.7,3.5-58.1,2.3
			c-37.7-3-63.8-31.8-81.3-56.9c-64.9-4.2-117.3-14.9-172.2-35.1c-30.2-10.5-55.7-24.4-76.7-36.4c-37.8-21.7-78.8-54.8-112.3-91.2
			c-22.2-24-41-49.2-55.3-73.9c-9-15.3-16.2-30.6-21.7-45.3c-5.3-3.1-10.3-6.7-14.5-10.8c-18.4-16.8-28.9-41.5-27-67.8
			c0.9-9.5,3.1-18.8,7.1-27.2c-6.7-13.3-9.8-28.4-8.6-43.8c1.6-22.2,11.9-42.4,28.7-56.7c10.8-9.2,23.2-15.4,36.6-18.3
			c9-14.3,18.9-26.8,18.9-27c13.4-16.5,28.5-31.2,47.6-46.4c12.7-10.1,25.9-17.8,37.4-24.3c11.5-6.5,27.1-14.9,45.5-21.9
			c21.1-8,40.7-13.9,59.7-17.9C53.3,82,114.9,85.4,144.7,87.8c7.4-6.9,15-14.1,23.6-20.8c28.8-21.9,78.2-40,152.2-1.5
			c22.8,11.9,50,32.1,69.4,51.6l9.2,8.9c0.5,0.7,2.4,2.7,2.9,3.5c6.5,6,24.5,27.2,27.2,30.7c2.9,3.7,6.2,8.1,9.5,12.8
			c2.5,3.3,6.3,8.5,9.7,12.7c0.7-0.5,1.3-1.2,2-1.7l50.4-39.9c0.7-0.5,1.5-1,2.2-1.5c5.4-3.8,10-7.1,14.7-10.4
			c15.1-10.4,29.2-20.5,50.4-31.8c20.3-10.9,44.2-22.1,68.9-24.9c35.2-3.6,57.2,9.9,69.4,21.9c35.1,34.5,29.8,93.1,26.6,131.8
			c-0.3,2.5-0.8,6.4-1.3,11.4c2.8,1,5.6,2.3,8.6,3.5c32.8,15.3,47.9,37.2,53.4,59.9c3,11.4,3.3,23,2.6,33.9
			c4.3,1.5,8.4,3.1,12.5,5.2c8.3,4.2,16.8,9.5,24.3,16.6c19,18.4,32.3,47.3,24.8,93.4C898.9,469.8,926.9,500.2,932.6,537.1z"/>
	</g>
	<g id="XMLID_107_">
		<g id="XMLID_1047_">
			<g id="XMLID_1048_">
				<defs>
					<path id="XMLID_1049_" d="M-197.1,270.5c1.3,0.1,2.7,0.3,4,0.5c0-0.1,0.1-0.3,0.1-0.4c3.2-9.4,18.9-31.6,25.5-39.6
						c12.3-14.9,25.8-27.3,41.1-39.1c10-7.8,21-14.1,32-20.1c12.6-6.9,25.2-13.2,39.5-18.5c18.3-6.7,35.9-11.9,53.5-15.6
						c86.9-18,161-4,164.7-5.2c10.8-9.9,21.3-20.6,33-29.4c33.6-25.1,73.1-14.9,107.3,3.4c20,10.7,42.9,28.8,57.9,44.2l9.2,9.3
						c1.4,1.5,1.8,2.2,3.2,3.5c4.2,4.1,19.8,22.6,23.2,26.9c11.9,15.1,26.3,42.6,45.5,44.3c14.5,1.3,25.4-9.8,36.2-18.1l44.6-34.3
						c21.9-14.6,35.7-25.4,60.9-38.6c15-7.8,35.3-17.6,53.4-19.3c61.6-5.7,53.7,67.6,49.5,110.3c-0.6,6-6.2,41.8-5.9,43.5
						c13.1,1.9,24.6,4.6,35.7,9.9c41.7,19.7,34.8,51.4,24.3,88.9c15,1.4,28.3,2.2,41.1,8.7c40.5,20.8,29.4,66.2,16.6,101.1
						c91.2,14.1,115.3,92.8,28.7,133.7c-15.1,7.1-38,14.1-55.8,18.1c-78.4,17.3-164.8,14.2-243.6,1c-28.7-5.2-25-4.4-31.8-2.5
						c-6.2,1.8-10.6,7.6-16.5,21.9c-25.2,67.3-144.8,99.8-209.7,94.1c-23.6-2.1-42.8-27.9-55.1-47.4c-1.8-2.9-3.9-5.5-5.6-8.5
						c-65.5-3.5-118.4-12.7-177.6-35.1c-25.3-9.3-47.5-21.2-69-33.8c-31.9-18.7-69.1-48.9-100.2-83.4c-33.8-37.5-60.7-80.1-71-119.5
						c-0.2-0.9-0.4-1.6-0.4-1.6c-20.4-4.4-34.8-23.5-32.9-44.8c1.1-12.8,7.9-23.8,17.7-30.7c0-0.3,0-0.5,0-0.8
						c-12.4-8.3-19.9-22.9-18.5-38.7C-240.7,285.6-220.3,268.5-197.1,270.5z"/>
				</defs>
				<clipPath id="XMLID_2_">
					<use xlink:href="#XMLID_1049_"  style="overflow:visible;"/>
				</clipPath>
				
					<rect id="XMLID_1344_" x="-247.9" y="83" transform="matrix(0.999 4.379001e-002 -4.379001e-002 0.999 18.7486 -14.3229)" class="st1" width="1168.3" height="675.5"/>
				<path id="XMLID_1343_" class="st1" d="M583.4,193.2c41.3,134,24.4,272-36.3,386.9c-30.4,57.4-71.7,109.1-122.1,151.6
					c-25.2,21.2-52.8,40.2-82.4,56.4l0.9-20.9L-137,746.1l-2,45.7c-57.4-30.4-109.1-71.7-151.6-122.1l23.3,1l27.2-621.2l756,33.1
					l1.2-26.9c9.4,13.7,18.2,28,26.3,42.8C559.6,128.1,573,159.7,583.4,193.2z"/>
				<path id="XMLID_1342_" class="st1" d="M578.8,194.6c40.9,132.7,24.2,269.4-35.9,383.2c-30.1,56.9-71,108.1-121,150.1
					c-25,21-52.3,39.8-81.6,55.8L341,767l-476-20.9l-1.8,41.3c-56.9-30.1-108.1-71-150.1-121l19.7,0.9l27.1-617.9l752.1,33l1.1-24
					c9.3,13.6,18,27.7,26,42.4C555.2,130.1,568.5,161.5,578.8,194.6z"/>
				<path id="XMLID_1341_" class="st1" d="M574.1,196.1c40.5,131.4,24,266.8-35.6,379.5c-29.8,56.3-70.3,107-119.8,148.7
					C394,745.1,367,763.7,338,779.6l0.6-12.6l-471.4-20.7l-1.6,37c-56.3-29.8-107-70.3-148.7-119.8l16.1,0.7l26.9-614.7l748.3,32.8
					l0.9-21.1c9.2,13.5,17.8,27.5,25.8,42C550.8,132.2,564,163.2,574.1,196.1z"/>
				<path id="XMLID_1340_" class="st1" d="M569.5,197.5c80.3,260.3-65.6,536.4-325.9,616.7l2.3-51.3l-376.7-16.5l-1.4,32.6
					c-55.8-29.5-106-69.6-147.2-118.7l12.6,0.6l26.8-611.4l713.6,31.3l2.4-55.3C517.1,74.5,549.4,132.4,569.5,197.5z"/>
				<path id="XMLID_1327_" class="st1" d="M564.9,198.9c79.5,257.8-65,531.2-322.7,610.7l2.1-46.8l-373-16.3l-1.2,28.2
					c-55.3-29.2-104.9-68.9-145.8-117.5l9,0.4l26.7-608.1l710,31.1l2.3-52C513,77.1,545,134.5,564.9,198.9z"/>
				<path id="XMLID_1254_" class="st2" d="M560.3,200.3C639,455.5,495.9,726.2,240.7,805l1.9-42.2l-369.3-16.2l-1,23.9
					c-54.7-28.9-103.9-68.3-144.3-116.3l5.5,0.2l26.5-604.9l706.4,31l2.1-48.8C508.9,79.7,540.6,136.5,560.3,200.3z"/>
				<path id="XMLID_1252_" class="st2" d="M555.7,201.8c77.9,252.6-63.7,520.6-316.3,598.6l1.7-37.7l-365.6-16l-0.9,19.5
					c-54.2-28.6-102.9-67.6-142.9-115.2l1.9,0.1l26.4-601.6l702.9,30.8l2-45.5C504.8,82.4,536.2,138.6,555.7,201.8z"/>
				<path id="XMLID_1250_" class="st2" d="M551,203.2c77.2,250.1-63,515.4-313.1,592.5l1.5-33.1l-361.9-15.9l-0.7,15.1
					c-53.6-28.3-101.8-66.9-141.5-114c-19.8-23.6-37.5-49.2-52.6-76.9l54.2,2.4l23-523.9l699.3,30.7l1.9-42.2
					C500.7,85,531.7,140.7,551,203.2z"/>
				<path id="XMLID_1249_" class="st3" d="M546.4,204.6c76.4,247.5-62.4,510.1-309.9,586.5l1.3-28.6l-358.2-15.7l-0.5,10.8
					c-53.1-28-100.8-66.2-140-112.8c-19.6-23.3-37.1-48.7-52.1-76.1l50.1,2.2l22.8-521.2l-26.9-1.2c9.4-11.7,19.5-23,30-33.9
					l-1.5,34.9L455.7,80l1.7-38.9C496.6,87.6,527.3,142.7,546.4,204.6z"/>
				<path id="XMLID_1222_" class="st4" d="M541.8,206C617.4,451,480,710.9,235,786.5l1.1-24l-354.5-15.5l-0.3,6.4
					c-52.5-27.8-99.7-65.5-138.6-111.7c-19.4-23.1-36.7-48.2-51.5-75.3l46,2l22.6-515.8l-23.1-1c9.3-11.6,19.3-22.8,29.7-33.5
					l-1.4,31.6l687.1,30.1l1.6-35.7C492.5,90.3,522.9,144.8,541.8,206z"/>
				<path id="XMLID_1219_" class="st5" d="M537.2,207.5c74.8,242.4-61.1,499.6-303.6,574.4l0.9-19.5L-116.4,747l-0.1,2.1
					c-52-27.5-98.7-64.8-137.1-110.5c-19.2-22.8-36.3-47.7-51-74.5l41.8,1.8l22.4-510.4l-19.2-0.8c9.2-11.5,19.1-22.6,29.4-33.2
					l-1.2,28.4l679.9,29.8l1.4-32.4C488.4,92.9,518.5,146.9,537.2,207.5z"/>
				<path id="XMLID_1218_" class="st5" d="M532.6,208.9c74,239.9-60.5,494.3-300.4,568.3l0.7-14.9l-178.5-7.8l-1.8,40.8
					c-58.7-5.9-115.4-23.3-166.8-50.5c-51.4-27.2-97.7-64.2-135.7-109.3c-19-22.6-36-47.2-50.5-73.7l37.7,1.7l22.1-505l-15.3-0.7
					c9.1-11.4,18.9-22.3,29.1-32.8l-1.1,25.2L445,79.5l1.3-29.1C484.3,95.5,514.1,148.9,532.6,208.9z"/>
				<path id="XMLID_1217_" class="st6" d="M527.9,210.3c73.2,237.3-59.8,489.1-297.2,562.3c-118.7,36.6-240.9,21.7-342.7-32.1
					c-50.9-26.9-96.6-63.5-134.2-108.2c-18.8-22.4-35.6-46.7-49.9-72.9l33.6,1.5l18.7-425.6l-55.5-2.4
					c26.9-50.9,63.5-96.6,108.2-134.2l-2.3,53l635,27.8l1.1-25.9C480.2,98.2,509.6,151,527.9,210.3z"/>
				<path id="XMLID_1201_" class="st7" d="M523.3,211.7c72.4,234.8-59.2,483.8-294,556.3C112,804.2-9,789.4-109.7,736.2
					c-50.3-26.6-95.6-62.8-132.8-107c-18.6-22.1-35.2-46.2-49.4-72.2l29.4,1.3l18.5-421.1l-51.2-2.2c26.6-50.3,62.8-95.6,107-132.8
					l-2.2,49.4l628.1,27.5l1-22.6C476.1,100.8,505.2,153,523.3,211.7z"/>
				<path id="XMLID_1200_" class="st7" d="M518.7,213.2c71.6,232.2-58.5,478.6-290.8,550.2c-116.1,35.8-235.8,21.2-335.3-31.4
					c-49.8-26.3-94.5-62.1-131.3-105.9c-18.4-21.9-34.8-45.7-48.9-71.4l25.3,1.1l18.3-416.5l-46.8-2.1
					C-264.5,87.5-228.7,42.7-185,5.9l-2,45.9L434.3,79l0.8-19.3C472,103.4,500.8,155.1,518.7,213.2z"/>
				<path id="XMLID_1198_" class="st8" d="M514.1,214.6c70.9,229.7-57.9,473.3-287.6,544.2c-114.8,35.4-233.2,21-331.6-31.1
					c-49.2-26-93.5-61.4-129.9-104.7c-18.2-21.6-34.4-45.2-48.3-70.6l21.2,0.9l18.1-411.9l-42.5-1.9c26-49.2,61.4-93.5,104.7-129.9
					l-1.9,42.3l614.5,26.9l0.7-16.1C467.8,106.1,496.4,157.2,514.1,214.6z"/>
				<path id="XMLID_1195_" class="st9" d="M509.4,216c70.1,227.1-57.3,468-284.4,538.1c-113.6,35-230.6,20.7-328-30.7
					C-200.3,671.9-278,583.3-313,469.7l54.4,2.4l14.4-328.7l-38.1-1.7c25.7-48.7,60.8-92.5,103.5-128.5l-1.7,38.7l607.7,26.6
					l0.6-12.8C463.7,108.7,491.9,159.2,509.4,216z"/>
				<path id="XMLID_1194_" class="st10" d="M504.8,217.4c69.3,224.6-56.6,462.8-281.2,532.1c-112.3,34.6-228,20.5-324.3-30.4
					s-173.2-138.5-207.8-250.8l49.9,2.2l14.2-325l-33.7-1.5c25.4-48.1,60.1-91.4,102.4-127l-1.5,35.2l600.8,26.3L424,69
					C459.6,111.3,487.5,161.3,504.8,217.4z"/>
				<path id="XMLID_1193_" class="st11" d="M500.2,218.9c68.5,222-56,457.5-278,526c-111,34.2-225.4,20.3-320.6-30.1
					s-171.2-136.9-205.4-247.9l45.3,2l14.1-321.3l-29.4-1.3c25.2-47.6,59.4-90.4,101.2-125.6l-1.4,31.6l594,26l0.3-6.3
					C455.5,114,483.1,163.4,500.2,218.9z"/>
				<path id="XMLID_1192_" class="st12" d="M495.6,220.3c67.7,219.5-55.3,452.3-274.8,520C111.1,774.1-2,760.3-96.1,710.6
					s-169.2-135.4-203.1-245.1l40.8,1.8l13.9-317.6l-25-1.1c24.9-47,58.7-89.4,100-124.1l-1.2,28.1l587.2,25.7l0.1-3
					C451.4,116.6,478.7,165.4,495.6,220.3z"/>
				<path id="XMLID_1191_" class="st13" d="M491,221.7c66.9,216.9-54.7,447-271.6,513.9S-227.6,681-294.6,464l36.2,1.6l13.8-313.9
					l-20.6-0.9c24.6-46.5,58-88.3,98.9-122.7l-1.1,24.5l521.2,22.8l2.3-52.7c20.6,16.5,39.6,35.1,56.8,55.5
					C447.3,119.2,474.2,167.5,491,221.7z"/>
				<path id="XMLID_1190_" class="st14" d="M486.3,223.1c66.1,214.4-54,441.8-268.4,507.9s-441.8-54-507.9-268.4l31.7,1.4
					l13.6-310.2l-16.3-0.7c24.3-46,57.3-87.3,97.7-121.2l-0.9,20.9L351,75.4l2.1-48.8c20.3,16.3,39.1,34.7,56.1,54.9
					C443.2,121.8,469.8,169.6,486.3,223.1z"/>
				<path id="XMLID_1189_" class="st14" d="M481.7,224.6c65.3,211.8-53.4,436.5-265.2,501.8S-220,673-285.3,461.2l27.1,1.2
					l13.4-306.5l-11.9-0.5c24-45.4,56.7-86.2,96.6-119.8l-0.8,17.4l509,22.3l2-44.9c20.1,16.2,38.7,34.3,55.5,54.2
					C439.1,124.5,465.4,171.6,481.7,224.6z"/>
				<path id="XMLID_1188_" class="st14" d="M477.1,226c64.6,209.3-52.8,431.2-262,495.8s-431.2-52.8-495.8-262l22.6,1l13.3-302.8
					l-7.5-0.3c23.7-44.9,56-85.2,95.4-118.4l-0.6,13.8l502.8,22l1.8-41c19.8,16,38.2,33.9,54.8,53.6C435,127.1,461,173.7,477.1,226z
					"/>
				<path id="XMLID_1187_" class="st15" d="M472.5,227.4c63.8,206.7-52.1,426-258.8,489.7s-426-52.1-489.7-258.8l18,0.8l13.1-299.1
					l-3.2-0.1c23.4-44.3,55.3-84.2,94.2-116.9l-0.5,10.3L342.4,75l1.6-37.1c19.6,15.8,37.7,33.5,54.1,52.9
					C430.9,129.7,456.5,175.7,472.5,227.4z"/>
				<path id="XMLID_1186_" class="st16" d="M467.9,228.8c63,204.2-51.5,420.7-255.6,483.7s-420.7-51.5-483.7-255.6
					c-31.5-102.1-18.6-207.3,27.6-294.8c23.1-43.8,54.6-83.1,93.1-115.5l-0.3,6.7l490.6,21.5l1.5-33.2
					c19.4,15.6,37.3,33.1,53.5,52.3C426.8,132.4,452.1,177.8,467.9,228.8z"/>
				<path id="XMLID_1184_" class="st17" d="M463.2,230.3c62.2,201.6-50.8,415.5-252.4,477.7s-415.5-50.8-477.7-252.4
					c-31.1-100.8-18.4-204.7,27.3-291.1c22.8-43.2,53.9-82.1,91.9-114l-0.1,3.2l484.4,21.2l1.3-29.3C357,60.8,374.7,78,390.7,97
					C422.7,135,447.7,179.9,463.2,230.3z"/>
				<path id="XMLID_1183_" class="st18" d="M458.6,231.7c61.4,199.1-50.2,410.2-249.2,471.6s-410.2-50.2-471.6-249.2
					c-30.7-99.5-18.2-202.1,26.9-287.4c22.6-42.7,53.2-81,90.7-112.6c18.7-15.8,39.2-29.8,61.2-41.9l-1.9,44.1l419.1,18.4l1.1-25.4
					c18.9,15.2,36.3,32.2,52.1,51C418.6,137.6,443.3,181.9,458.6,231.7z"/>
				<path id="XMLID_1182_" class="st19" d="M454,233.1c60.6,196.5-49.5,404.9-246,465.6c-196.5,60.6-404.9-49.5-465.6-246
					c-30.3-98.3-17.9-199.5,26.6-283.7c22.3-42.1,52.6-80,89.6-111.1c18.5-15.6,38.7-29.5,60.4-41.3l-1.8,39.9l413.7,18.1l0.9-21.6
					c18.6,15,35.9,31.8,51.4,50.3C414.5,140.3,438.8,184,454,233.1z"/>
				<path id="XMLID_1165_" class="st20" d="M449.4,234.5c59.8,194-48.9,399.7-242.8,459.5S-193.1,645.2-253,451.2
					c-29.9-97-17.7-196.9,26.3-280.1c22-41.6,51.9-79,88.4-109.7c18.3-15.4,38.2-29.1,59.6-40.8l-1.6,35.8l347.8,15.2l2.4-53.8
					C353.1,61.9,419.5,137.6,449.4,234.5z"/>
				<path id="XMLID_1155_" class="st21" d="M444.8,236c59,191.4-48.2,394.4-239.6,453.5c-191.4,59-394.4-48.2-453.5-239.6
					c-29.5-95.7-17.5-194.3,25.9-276.4c21.7-41,51.2-77.9,87.2-108.3c18-15.2,37.7-28.7,58.8-40.3l-1.4,31.7l343.3,15l2.2-49.4
					C349.7,65.6,415.2,140.3,444.8,236z"/>
				<path id="XMLID_1136_" class="st22" d="M440.1,237.4c58.3,188.8-47.6,389.2-236.5,447.4s-389.2-47.6-447.4-236.5
					c-29.1-94.4-17.2-191.7,25.6-272.7c21.4-40.5,50.5-76.9,86.1-106.8c17.8-15,37.2-28.3,58-39.7l-1.2,27.5l338.7,14.8l2-45
					C346.4,69.3,411,143,440.1,237.4z"/>
				<path id="XMLID_1135_" class="st23" d="M435.5,238.8c57.5,186.3-47,383.9-233.3,441.4s-383.9-47-441.4-233.3S-192.2,63-5.9,5.6
					l-2.4,54.1l269.6,11.8l1.8-40.7C343,73,406.8,145.7,435.5,238.8z"/>
				<path id="XMLID_1134_" class="st24" d="M430.9,240.2c56.7,183.7-46.3,378.6-230.1,435.3s-378.6-46.3-435.3-230.1
					S-188.2,66.9-4.4,10.2l-2.2,49.5l265.9,11.7l1.6-36.3C339.7,76.7,402.6,148.4,430.9,240.2z"/>
				<path id="XMLID_1133_" class="st25" d="M426.3,241.7c55.9,181.2-45.7,373.4-226.9,429.3C18.2,726.9-174,625.3-229.9,444.1
					S-184.2,70.7-3,14.8l-2,45l262.2,11.5l1.4-31.9C336.3,80.4,398.3,151.1,426.3,241.7z"/>
				<path id="XMLID_1132_" class="st26" d="M421.7,243.1c55.1,178.6-45,368.1-223.7,423.2s-368.1-45-423.2-223.7
					s45-368.1,223.7-423.2l-1.8,40.4l258.5,11.3l1.2-27.6C333,84.1,394.1,153.8,421.7,243.1z"/>
				<path id="XMLID_1131_" class="st27" d="M417,244.5c54.3,176.1-44.4,362.9-220.5,417.2C20.5,716-166.3,617.3-220.6,441.2
					S-176.2,78.4-0.2,24l-1.6,35.9l254.8,11.2l1-23.2C329.6,87.8,389.9,156.5,417,244.5z"/>
				<path id="XMLID_1130_" class="st28" d="M412.4,246c53.5,173.5-43.7,357.6-217.3,411.1S-162.5,613.3-216,439.8
					S-172.3,82.2,1.3,28.7L-0.1,60L251,71l0.8-18.8C326.2,91.5,385.6,159.2,412.4,246z"/>
				<path id="XMLID_1128_" class="st29" d="M407.8,247.4c52.7,171-43.1,352.4-214.1,405.1s-352.4-43.1-405.1-214.1
					S-168.3,86,2.7,33.3L1.5,60.1l247.4,10.8l0.6-14.5C322.9,95.2,381.4,161.9,407.8,247.4z"/>
				<path id="XMLID_1126_" class="st30" d="M403.2,248.8c52,168.4-42.5,347.1-210.9,399.1S-154.8,605.4-206.8,437
					S-164.3,89.9,4.1,37.9l-1,22.2l243.7,10.7l0.4-10.1C319.5,98.9,377.2,164.6,403.2,248.8z"/>
				<path id="XMLID_1119_" class="st31" d="M398.6,250.2c51.2,165.9-41.8,341.8-207.7,393C25,694.4-151,601.4-202.1,435.5
					s41.8-341.8,207.7-393L4.8,60.2l240,10.5l0.3-5.7C316.2,102.6,373,167.3,398.6,250.2z"/>
				<path id="XMLID_1116_" class="st31" d="M393.9,251.7c50.4,163.3-41.2,336.6-204.5,387s-336.6-41.2-387-204.5S-156.4,97.5,7,47.2
					L6.4,60.3l236.3,10.4l0.1-1.4C312.8,106.3,368.7,170,393.9,251.7z"/>
				<path id="XMLID_1115_" class="st32" d="M389.3,253.1C438.9,413.9,348.8,584.4,188,634c-160.8,49.6-331.3-40.5-380.9-201.3
					S-152.4,101.4,8.4,51.8C88.8,27,171.6,37.1,240.5,73.5S364.5,172.7,389.3,253.1z"/>
				<path id="XMLID_1114_" class="st33" d="M384.7,254.5c48.8,158.2-39.9,326.1-198.1,374.9s-326.1-39.9-374.9-198.1
					S-148.4,105.2,9.8,56.4C88.9,32,170.4,42,238.3,77.8S360.3,175.4,384.7,254.5z"/>
				<circle id="XMLID_1113_" class="st34" cx="98.2" cy="342.9" r="295"/>
				<circle id="XMLID_1112_" class="st35" cx="98.2" cy="342.9" r="290.1"/>
				<circle id="XMLID_1111_" class="st36" cx="98.2" cy="342.9" r="285.3"/>
				<circle id="XMLID_1110_" class="st37" cx="98.2" cy="342.9" r="280.5"/>
				<circle id="XMLID_1109_" class="st38" cx="98.2" cy="342.9" r="275.6"/>
				<circle id="XMLID_1108_" class="st39" cx="98.2" cy="342.9" r="270.8"/>
				<circle id="XMLID_1107_" class="st40" cx="98.2" cy="342.9" r="266"/>
				<circle id="XMLID_1106_" class="st41" cx="98.2" cy="342.9" r="261.1"/>
				<circle id="XMLID_1105_" class="st42" cx="98.2" cy="342.9" r="256.3"/>
				<circle id="XMLID_1104_" class="st43" cx="98.2" cy="342.9" r="251.5"/>
				<circle id="XMLID_1103_" class="st44" cx="98.2" cy="342.9" r="246.6"/>
				<circle id="XMLID_1102_" class="st45" cx="98.2" cy="342.9" r="241.8"/>
				<circle id="XMLID_1101_" class="st46" cx="98.2" cy="342.9" r="236.9"/>
				<circle id="XMLID_1100_" class="st47" cx="98.2" cy="342.9" r="232.1"/>
				<circle id="XMLID_1099_" class="st48" cx="98.2" cy="342.9" r="227.3"/>
				<circle id="XMLID_1098_" class="st49" cx="98.2" cy="342.9" r="222.4"/>
				<circle id="XMLID_1097_" class="st50" cx="98.2" cy="342.9" r="217.6"/>
				<circle id="XMLID_1096_" class="st51" cx="98.2" cy="342.9" r="212.8"/>
				<circle id="XMLID_1095_" class="st52" cx="98.2" cy="342.9" r="207.9"/>
				<circle id="XMLID_1094_" class="st53" cx="98.2" cy="342.9" r="203.1"/>
				<circle id="XMLID_1093_" class="st54" cx="98.2" cy="342.9" r="198.3"/>
				<circle id="XMLID_1092_" class="st55" cx="98.2" cy="342.9" r="193.4"/>
				<circle id="XMLID_1091_" class="st56" cx="98.2" cy="342.9" r="188.6"/>
				<circle id="XMLID_1090_" class="st57" cx="98.2" cy="342.9" r="183.8"/>
				<circle id="XMLID_1089_" class="st58" cx="98.2" cy="342.9" r="178.9"/>
				<circle id="XMLID_1088_" class="st59" cx="98.2" cy="342.9" r="174.1"/>
				<circle id="XMLID_1087_" class="st60" cx="98.2" cy="342.9" r="169.2"/>
				<circle id="XMLID_1086_" class="st61" cx="98.2" cy="342.9" r="164.4"/>
				<circle id="XMLID_1085_" class="st62" cx="98.2" cy="342.9" r="159.6"/>
				<circle id="XMLID_1084_" class="st63" cx="98.2" cy="342.9" r="154.7"/>
				<circle id="XMLID_1083_" class="st64" cx="98.2" cy="342.9" r="149.9"/>
				<circle id="XMLID_1082_" class="st65" cx="98.2" cy="342.9" r="145.1"/>
				<circle id="XMLID_1081_" class="st66" cx="98.2" cy="342.9" r="140.2"/>
				<circle id="XMLID_1080_" class="st67" cx="98.2" cy="342.9" r="135.4"/>
				<circle id="XMLID_1079_" class="st68" cx="98.2" cy="342.9" r="130.6"/>
				<circle id="XMLID_1078_" class="st69" cx="98.2" cy="342.9" r="125.7"/>
				<circle id="XMLID_1077_" class="st69" cx="98.2" cy="342.9" r="120.9"/>
				<circle id="XMLID_1076_" class="st70" cx="98.2" cy="342.9" r="116.1"/>
				<circle id="XMLID_1075_" class="st71" cx="98.2" cy="342.9" r="111.2"/>
				<circle id="XMLID_1074_" class="st72" cx="98.2" cy="342.9" r="106.4"/>
				<circle id="XMLID_1073_" class="st73" cx="98.2" cy="342.9" r="101.5"/>
				<circle id="XMLID_1072_" class="st74" cx="98.2" cy="342.9" r="96.7"/>
				<circle id="XMLID_1071_" class="st75" cx="98.2" cy="342.9" r="91.9"/>
				<circle id="XMLID_1069_" class="st76" cx="98.2" cy="342.9" r="87"/>
				<circle id="XMLID_1068_" class="st77" cx="98.2" cy="342.9" r="82.2"/>
				<circle id="XMLID_1067_" class="st78" cx="98.2" cy="342.9" r="77.4"/>
				<circle id="XMLID_1066_" class="st79" cx="98.2" cy="342.9" r="72.5"/>
				<circle id="XMLID_1065_" class="st80" cx="98.2" cy="342.9" r="67.7"/>
				<circle id="XMLID_1064_" class="st81" cx="98.2" cy="342.9" r="62.9"/>
				<circle id="XMLID_1063_" class="st82" cx="98.2" cy="342.9" r="58"/>
				<circle id="XMLID_1062_" class="st83" cx="98.2" cy="342.9" r="53.2"/>
				<circle id="XMLID_1059_" class="st84" cx="98.2" cy="342.9" r="48.4"/>
				<circle id="XMLID_1058_" class="st85" cx="98.2" cy="342.9" r="43.5"/>
				<circle id="XMLID_1057_" class="st86" cx="98.2" cy="342.9" r="38.7"/>
				<circle id="XMLID_1056_" class="st87" cx="98.2" cy="342.9" r="33.8"/>
				<circle id="XMLID_1055_" class="st88" cx="98.2" cy="342.9" r="29"/>
				<circle id="XMLID_1054_" class="st89" cx="98.2" cy="342.9" r="24.2"/>
				<circle id="XMLID_1053_" class="st90" cx="98.2" cy="342.9" r="19.3"/>
				<circle id="XMLID_1052_" class="st91" cx="98.2" cy="342.9" r="14.5"/>
				<circle id="XMLID_1051_" class="st92" cx="98.2" cy="342.9" r="9.7"/>
				<circle id="XMLID_1050_" class="st93" cx="98.2" cy="342.9" r="4.8"/>
			</g>
		</g>
		<g id="XMLID_1043_">
			<path id="XMLID_1044_" class="st94" d="M-196.7,265.5l0.3,0c1.9-4.1,4.9-9.2,8.2-14.4c5.9-9.1,12.9-18.6,16.7-23.3
				c6.2-7.6,12.9-14.5,19.9-21.2c7-6.6,14.3-12.8,22-18.8c5.2-4.1,10.6-7.7,16.1-11c5.4-3.3,11-6.5,16.5-9.5
				c6.3-3.5,12.7-6.8,19.4-10c6.6-3.2,13.5-6.1,20.8-8.8c9.3-3.4,18.3-6.4,27.3-9c8.9-2.6,17.9-4.9,26.9-6.7
				c70.5-14.6,132.5-8.4,156.2-6c3.8,0.4,6.2,0.8,7.3,0.9c2.8-2.6,5.1-4.7,7.3-6.9c8-7.6,16.1-15.2,24.9-21.8
				C211,85.7,230.5,81.7,250,83.6c19.1,1.8,38.2,9.1,55.8,18.5c9.9,5.3,20.5,12.4,30.5,20c10.7,8.1,20.7,17,28.6,25.1l0,0l9.2,9.3
				l0.2,0.2c0.4,0.5,0.9,1,1.3,1.4c0.6,0.7,1,1.2,1.7,1.8c1.9,1.9,5.7,6.1,9.7,10.8c5.7,6.6,11.9,14.1,14,16.7
				c2.6,3.3,5.3,7.1,8.1,11.1c9.7,13.8,21.1,30.2,33.9,31.3c10.3,0.9,19.2-6.3,27.7-13.1c1.5-1.2,2.9-2.4,5-3.9l44.6-34.3l0.3-0.2
				c5-3.3,10-6.8,14.9-10.2c14.5-10,27.1-18.6,46.4-28.7c7.6-4,16.6-8.4,26-12.2c9.6-3.8,19.7-6.8,29.2-7.7
				c40.9-3.8,54.1,23.4,57.1,55.9c1.8,19.8-0.3,41.4-2,58.4l-0.1,1.4c-0.3,2.9-1.5,10.9-2.7,19.3c-1.1,7.4-2.2,15.1-2.8,19.4
				c5,0.8,9.8,1.8,14.5,3.1c6.2,1.6,12.1,3.7,18,6.5c22.6,10.7,32.1,24.9,34.5,41.6c2.1,14.4-1.3,30.3-5.9,47.4
				c13.1,1.2,25,2.6,36.9,8.7c22.2,11.4,30.3,29.5,31,49.6c0.6,17.2-4.2,35.5-10,52c26.9,5.1,47.9,16,61.6,29.7
				c9.9,9.9,16.1,21.3,18.3,33.3c2.2,12.1,0.2,24.7-6.3,36.8c-8.5,15.7-24.7,30.6-49.5,42.4c-7.4,3.5-16.5,6.9-26,10
				c-10.4,3.4-21.3,6.3-30.9,8.4c-37.4,8.2-76.5,11.9-115.7,12.1c-43.9,0.2-87.9-4-129.8-11l-0.1,0c-24.1-4.3-24.1-4.3-27.3-3.3
				c-0.5,0.2-1.2,0.4-2.2,0.7c-2,0.6-3.9,1.9-5.7,4.4c-2.3,3.1-4.7,7.8-7.5,14.5l0,0c-11.8,31.3-42.5,55.1-78.9,71.5
				c-45,20.2-99.1,29-135.9,25.7c-13.1-1.2-24.8-8.7-34.9-18.6c-9.6-9.5-17.7-21.1-24.1-31.1c-0.6-1-1.5-2.2-2.3-3.4
				c-0.7-1-1.3-1.9-2-2.9c-31.9-1.8-61-5-89.2-10.4c-29.1-5.6-57.4-13.6-87.2-24.8l0,0C17.2,662.2,5.1,656.8-6.4,651
				c-11.4-5.7-22.5-11.9-33.4-18.3c-16.6-9.7-34.5-22.4-52.3-37.2c-16.9-14.1-33.8-30.1-49.2-47.2c-17.7-19.6-33.5-40.6-46.1-61.8
				c-11.6-19.6-20.6-39.4-25.7-58.6c-10.2-2.9-18.9-9.2-24.9-17.4c-6.5-8.9-10-20.2-8.9-32.1c0.6-7,2.8-13.6,6.1-19.3
				c2.4-4.2,5.5-8,9-11.2c-4.8-4.2-8.8-9.4-11.5-15.2c-3.5-7.4-5.2-15.8-4.4-24.5c1.2-13,7.4-24.2,16.7-32
				C-221.9,268.6-209.7,264.4-196.7,265.5L-196.7,265.5z M-195.8,275.7c-0.7-0.1-1.2-0.2-1.8-0.2c-10.2-0.9-19.8,2.4-27.1,8.5
				c-7.3,6.1-12.2,15-13.1,25.2c-0.6,6.9,0.7,13.5,3.5,19.2c2.9,6,7.3,11.1,12.9,14.8l2.2,1.5l0,2.7c0,0.2,0-0.1,0,0.3
				c0,0.6,0,0,0,0.3l0.1,2.7l-2.2,1.6c-4.4,3.1-8.1,7.1-10.8,11.8c-2.6,4.5-4.3,9.7-4.8,15.2c-0.8,9.3,1.9,18.2,7,25.2
				c5.2,7.1,12.9,12.3,22,14.3l3,0.6l0.8,3c0,0,0.2,0.7,0.4,1.7c4.9,18.6,13.5,38,25,57.2c12.3,20.7,27.7,41.1,44.9,60.2
				c15,16.7,31.5,32.3,48.2,46.2c17.4,14.4,34.8,26.8,50.9,36.3c10.6,6.2,21.4,12.3,32.8,18c11.2,5.6,22.9,10.9,35.4,15.5l0,0
				c29.3,11.1,57.1,18.9,85.6,24.4c28.6,5.5,58,8.7,90.5,10.4l2.7,0.1l1.4,2.3c0.9,1.5,1.9,3,3,4.6c0.8,1.1,1.6,2.3,2.5,3.7
				c6,9.5,13.7,20.5,22.6,29.3c8.5,8.4,18.3,14.8,28.7,15.7c35.3,3.1,87.3-5.4,130.9-24.9c34.2-15.4,63-37.5,73.7-65.9l0.1-0.2
				c3.1-7.5,5.9-12.9,8.7-16.7c3.3-4.4,6.8-6.9,11-8.1c0.6-0.2,1.3-0.4,1.9-0.6c5.6-1.8,5.7-1.9,32.3,2.9l0,0
				c41.4,6.9,84.8,11.1,128,10.9c38.6-0.2,76.9-3.7,113.6-11.8c9.2-2,19.8-4.9,30-8.2c9.1-3,17.8-6.2,24.8-9.5
				c22.7-10.8,37.4-24.1,44.9-38c5.4-10,7.1-20.4,5.3-30.3c-1.8-10-7.1-19.6-15.5-28c-13.3-13.3-34.4-23.7-62.1-27.9l-6.1-0.9
				l2.1-5.8c6.2-17,12-36.4,11.4-53.9c-0.6-16.6-7.2-31.6-25.5-40.9c-11-5.6-22.7-6.7-35.8-7.9c-1.1-0.1-2.3-0.2-3.5-0.3l-6-0.6
				l1.6-5.8c5.1-18.2,9.3-34.9,7.2-49c-1.9-13.4-9.8-24.9-28.9-33.9c-5.3-2.5-10.6-4.4-16.2-5.9c-5.7-1.5-11.7-2.7-18-3.6l-3.6-0.5
				l-0.6-3.6c-0.3-1.7,1.5-14.3,3.3-26c1.2-8.5,2.4-16.5,2.6-18.8l0.1-1.4c1.6-16.6,3.7-37.7,2-56.6c-2.5-27.1-13.2-49.8-46.2-46.8
				c-8.5,0.8-17.6,3.5-26.4,7c-9,3.6-17.7,7.9-25.1,11.7c-18.7,9.7-31.1,18.3-45.4,28.1c-4.5,3.1-9.2,6.3-15.1,10.2l-44.3,34.1
				c-1.2,0.9-3,2.4-4.8,3.8c-10,8.1-20.5,16.6-34.9,15.3c-17.5-1.6-30.4-20-41.2-35.5c-2.7-3.9-5.3-7.6-7.8-10.7
				c-2-2.5-8.1-9.9-13.7-16.3c-3.9-4.5-7.5-8.6-9-10.1c-1.2-1.1-1.7-1.7-2.4-2.5c-0.2-0.3-0.5-0.6-1-1.1l-9.2-9.2l0,0
				c-7.6-7.8-17.3-16.3-27.6-24.2c-9.6-7.3-19.7-14.1-29.2-19.1c-16.5-8.9-34.3-15.8-51.9-17.4c-17.2-1.6-34.3,1.9-50,13.6
				c-8.5,6.3-16.3,13.7-24,21c-3.1,2.9-6.2,5.9-8.6,8.1l-0.8,0.7l-1,0.3c-1.7,0.6-5.6,0.2-12.1-0.5c-23.3-2.4-84.2-8.5-153.2,5.8
				c-8.6,1.8-17.3,4-26.1,6.6c-8.8,2.6-17.6,5.5-26.7,8.8c-7,2.5-13.5,5.4-19.9,8.4c-6.4,3-12.6,6.3-18.8,9.7
				c-5.4,3-10.8,6-16.1,9.3c-5.3,3.2-10.4,6.7-15.2,10.4c-7.5,5.9-14.6,11.8-21.3,18.1c-6.6,6.3-13,13-19,20.2
				c-3.7,4.5-10.4,13.7-16,22.3c-4,6.2-7.4,12.1-8.6,15.7l0,0.1l-0.1,0.2l0,0l-0.1,0.2l-1.5,4l-4.2-0.8
				C-194.6,275.9-195.2,275.8-195.8,275.7z"/>
		</g>
		<g id="XMLID_1041_">
			<path id="XMLID_1042_" class="st95" d="M317.9,732.8c-0.6-0.3-1.2-0.5-1.7-0.8c-13.9-6.7-29.3-20.8-39.2-38.1
				c-8.6-15.2-12.9-32.8-8-49.9c2.2,18.2,11.7,54.8,65.9,73.5c3.6,1.2,5.4,4.2,5.7,7.4l0,0c0.1,1.5-0.2,3-0.8,4.5
				c-0.6,1.4-1.6,2.7-2.9,3.8C333.4,736,327.1,736.8,317.9,732.8z"/>
		</g>
		<g id="XMLID_1039_">
			<path id="XMLID_1040_" class="st95" d="M366.6,707.4c-0.5-0.2-1-0.4-1.4-0.5c-11.6-4.6-24.8-15.1-33.7-28.5
				c-7.8-11.7-12.3-25.7-9.3-39.8c2.8,14.6,12.6,43.5,57.3,55.5c2.9,0.8,4.6,3.1,5,5.7l0,0c0.2,1.2,0,2.5-0.4,3.6
				c-0.4,1.2-1.1,2.3-2.1,3.2C379.2,709.1,374.1,710.1,366.6,707.4z"/>
		</g>
		<g id="XMLID_1037_">
			<path id="XMLID_1038_" class="st95" d="M263.9,108.9c-0.7,0.2-1.3,0.3-1.8,0.5c-14.8,4-32.6,15.2-45.4,30.5
				c-11.2,13.4-18.6,29.9-16.8,47.6c5.4-17.6,21.4-51.8,78.1-60.5c3.7-0.6,6.1-3.2,6.9-6.3l0,0c0.4-1.5,0.4-3,0-4.5
				c-0.3-1.5-1.1-3-2.2-4.2C279.6,108.6,273.6,106.6,263.9,108.9z"/>
		</g>
		<g id="XMLID_1035_">
			<path id="XMLID_1036_" class="st95" d="M307.1,142.7c-0.5,0.1-1,0.2-1.5,0.3c-12.2,2.4-27.1,10.4-38.3,22
				c-9.8,10.1-16.7,23.1-16.3,37.5c5.4-13.8,20.2-40.5,66.4-44.3c3-0.2,5.1-2.2,5.9-4.7l0,0c0.4-1.1,0.5-2.4,0.3-3.7
				c-0.2-1.2-0.7-2.5-1.5-3.5C319.9,143.3,315.1,141.4,307.1,142.7z"/>
		</g>
		<g id="XMLID_1033_">
			<path id="XMLID_1034_" class="st95" d="M338,174.1c-0.4,0.1-0.8,0.1-1.1,0.2c-9.2,1.8-20.5,7.8-28.9,16.6
				c-7.4,7.7-12.6,17.4-12.3,28.3c4.1-10.5,15.3-30.6,50.1-33.5c2.3-0.2,3.9-1.7,4.5-3.5l0,0c0.3-0.9,0.4-1.8,0.2-2.8
				c-0.1-0.9-0.5-1.9-1.1-2.7C347.6,174.6,344,173.1,338,174.1z"/>
		</g>
		<g id="XMLID_1025_">
			<g id="XMLID_1026_">
				<defs>
					<path id="XMLID_1027_" d="M-161.5,224c10.6-11.8,22.2-22.2,35-32.1c10-7.8,21-14.1,32-20.1c12.6-6.9,25.2-13.2,39.5-18.5
						c18.3-6.7,35.9-11.9,53.5-15.6c63.1-13.1,119.4-9.5,147-6.7c139.3,14.4,227.2,97.5,297.1,103.7c14.5,1.3,25.4-9.8,36.2-18.1
						l44.6-34.3c21.9-14.6,35.7-25.4,60.9-38.6c15-7.8,35.3-17.6,53.4-19.3c35.7-3.3,48.1,20,51.3,48.4
						c-38.9-53.2-165.3,64.8-207.5,97.3c-12,9.2-24,21.5-40.1,20.1c-32.2-2.9-67.8-20.4-109.4-41.1
						C185.3,176.5-7.4,121.3-154.8,220.3C-156.9,221.7-159.3,222.8-161.5,224z"/>
				</defs>
				<clipPath id="XMLID_3_">
					<use xlink:href="#XMLID_1027_"  style="overflow:visible;"/>
				</clipPath>
				<polygon id="XMLID_1032_" class="st96" points="523.8,114.3 628.3,242.7 687.9,194.2 691.1,121.6 				"/>
				<polygon id="XMLID_1031_" class="st97" points="263.8,102.9 416.1,289.9 562.4,296.3 628.3,242.7 523.8,114.3 				"/>
				<polygon id="XMLID_1030_" class="st98" points="3.8,91.5 156.1,278.5 416.1,289.9 263.8,102.9 				"/>
				<polygon id="XMLID_1029_" class="st99" points="-27.2,90.1 -160,198.2 -103.9,267.1 156.1,278.5 3.8,91.5 				"/>
				<polygon id="XMLID_1028_" class="st100" points="-160,198.2 -160.3,198.5 -163.2,264.5 -103.9,267.1 				"/>
			</g>
		</g>
		<g id="XMLID_1014_">
			<g id="XMLID_1015_">
				<defs>
					<path id="XMLID_1016_" d="M862.5,515.1c31.8,30.6,25,77-35.1,105.4c-15.1,7.1-38,14.1-55.8,18.1c-78.4,17.3-164.8,14.2-243.6,1
						c-28.7-5.2-25.4-5.4-31.8-2.5c-64.8,29.9-164.1,68.5-295.7,59.6c-61.5-4.1-112.3-13.3-168.8-34.6c-25.3-9.3-47.5-21.2-69-33.8
						c-31.9-18.7-69.1-48.9-100.2-83.4c-26.3-29.1-48.4-61.3-61.7-92.7c13.2,21,29.7,41.6,48.1,60.7C-119,546.2-81,575-48.4,592.5
						c21.9,11.8,44.5,22.8,70.1,31.2c180.9,60.5,299.8,22.8,464-60.2C520.1,575.7,830.7,653.9,862.5,515.1z"/>
				</defs>
				<clipPath id="XMLID_4_">
					<use xlink:href="#XMLID_1016_"  style="overflow:visible;"/>
				</clipPath>
				<polygon id="XMLID_1024_" class="st101" points="892.4,588.1 809.7,726.5 886.2,729.9 				"/>
				<polygon id="XMLID_1023_" class="st102" points="895.6,516.4 866.4,498.9 771.4,494.7 637.4,719 809.7,726.5 892.4,588.1 				
					"/>
				<polygon id="XMLID_1022_" class="st103" points="599,487.2 465.1,711.4 637.4,719 771.4,494.7 				"/>
				<polygon id="XMLID_1021_" class="st104" points="426.7,479.6 292.7,703.9 465.1,711.4 599,487.2 				"/>
				<polygon id="XMLID_1020_" class="st105" points="254.4,472.1 120.4,696.3 292.7,703.9 426.7,479.6 				"/>
				<polygon id="XMLID_1019_" class="st106" points="82.1,464.5 -29.7,651.7 39,692.8 120.4,696.3 254.4,472.1 				"/>
				<polygon id="XMLID_1018_" class="st107" points="-90.2,457 -160.1,573.8 -29.7,651.7 82.1,464.5 				"/>
				<polygon id="XMLID_1017_" class="st108" points="-203.4,547.9 -160.1,573.8 -90.2,457 -199.3,452.2 				"/>
			</g>
		</g>
		<g id="XMLID_1010_">
			<path id="XMLID_1011_" class="st94" d="M-196.7,265.5l0.3,0c1.9-4.1,4.9-9.2,8.2-14.4c5.9-9.1,12.9-18.6,16.7-23.3
				c6.2-7.6,12.9-14.5,19.9-21.2c7-6.6,14.3-12.8,22-18.8c5.2-4.1,10.6-7.7,16.1-11c5.4-3.3,11-6.5,16.5-9.5
				c6.3-3.5,12.7-6.8,19.4-10c6.6-3.2,13.5-6.1,20.8-8.8c9.3-3.4,18.3-6.4,27.3-9c8.9-2.6,17.9-4.9,26.9-6.7
				c31.9-6.6,62.1-9,87.8-9.4c25.6-0.4,46.8,1.2,60.7,2.7c81.9,8.5,145.9,40.3,199,66.6c37.6,18.7,69.7,34.6,98,37.1
				c10.3,0.9,19.2-6.3,27.7-13.1c1.5-1.2,2.9-2.4,5-3.9l44.6-34.3l0.3-0.2c5-3.3,10-6.8,14.9-10.2c14.5-10,27.1-18.6,46.4-28.7
				c7.6-4,16.6-8.4,26-12.2c9.6-3.8,19.7-6.8,29.2-7.7c40.9-3.8,54.1,23.4,57.1,55.9c1.8,19.8-0.3,41.4-2,58.4l-0.1,1.4
				c-0.3,2.9-1.5,10.9-2.7,19.3c-1.1,7.4-2.2,15.1-2.8,19.4c5,0.8,9.8,1.8,14.5,3.1c6.2,1.6,12.1,3.7,18,6.5
				c22.6,10.7,32.1,24.9,34.5,41.6c2.1,14.4-1.3,30.3-5.9,47.4c13.1,1.2,25,2.6,36.9,8.7c22.2,11.4,30.3,29.5,31,49.6
				c0.6,17.2-4.2,35.5-10,52c26.9,5.1,47.9,16,61.6,29.7c9.9,9.9,16.1,21.3,18.3,33.3c2.2,12.1,0.2,24.7-6.3,36.8
				c-8.5,15.7-24.7,30.6-49.5,42.4c-7.4,3.5-16.5,6.9-26,10c-10.4,3.4-21.3,6.3-30.9,8.4c-37.4,8.2-76.5,11.9-115.7,12.1
				c-43.9,0.2-87.9-4-129.8-11l-0.1,0c-2.7-0.5-8.1-1.5-12.5-2.3c-6.3-1.2-9.7-1.8-11.7-2c-1.4-0.1-2.1,0.2-3.5,0.9
				c-0.2,0.1,0.2-0.1-1.2,0.5c-32.6,15.1-73.9,32.3-123.7,44.7c-49.8,12.4-108.1,19.9-174.5,15.4c-31-2.1-59.3-5.4-86.9-10.9
				c-27.7-5.5-54.7-13.2-83.3-24l0,0C17.2,662.2,5.1,656.8-6.4,651c-11.4-5.7-22.5-11.9-33.4-18.3c-16.6-9.7-34.5-22.4-52.3-37.2
				c-16.9-14.1-33.8-30.1-49.2-47.2c-17.7-19.6-33.5-40.6-46.1-61.8c-11.6-19.6-20.6-39.4-25.7-58.6c-10.2-2.9-18.9-9.2-24.9-17.4
				c-6.5-8.9-10-20.2-8.9-32.1c0.6-7,2.8-13.6,6.1-19.3c2.4-4.2,5.5-8,9-11.2c-4.8-4.2-8.8-9.4-11.5-15.2
				c-3.5-7.4-5.2-15.8-4.4-24.5c1.2-13,7.4-24.2,16.7-32C-221.9,268.6-209.7,264.4-196.7,265.5L-196.7,265.5z M-195.8,275.7
				c-0.7-0.1-1.2-0.2-1.8-0.2c-10.2-0.9-19.8,2.4-27.1,8.5c-7.3,6.1-12.2,15-13.1,25.2c-0.6,6.9,0.7,13.5,3.5,19.2
				c2.9,6,7.3,11.1,12.9,14.8l2.2,1.5l0,2.7c0,0.2,0-0.1,0,0.3c0,0.6,0,0,0,0.3l0.1,2.7l-2.2,1.6c-4.4,3.1-8.1,7.1-10.8,11.8
				c-2.6,4.5-4.3,9.7-4.8,15.2c-0.8,9.3,1.9,18.2,7,25.2c5.2,7.1,12.9,12.3,22,14.3l3,0.6l0.8,3c0,0,0.2,0.7,0.4,1.7
				c4.9,18.6,13.5,38,25,57.2c12.3,20.7,27.7,41.1,44.9,60.2c15,16.7,31.5,32.3,48.2,46.2c17.4,14.4,34.8,26.8,50.9,36.3
				c10.6,6.2,21.4,12.3,32.8,18c11.2,5.6,22.9,10.9,35.4,15.5l0,0c28,10.6,54.5,18.1,81.7,23.5c27.3,5.4,55.1,8.7,85.6,10.8
				c65.2,4.4,122.4-3,171.4-15.1c49-12.2,89.7-29.2,121.9-44c0.6-0.3,0.2-0.1,1.1-0.5c3.1-1.5,4.4-2.1,8.6-1.8
				c2.6,0.2,6.2,0.9,12.7,2.1c2.2,0.4,5,0.9,12.4,2.3l0,0c41.4,6.9,84.8,11.1,128,10.9c38.6-0.2,76.9-3.7,113.6-11.8
				c9.2-2,19.8-4.9,30-8.2c9.1-3,17.8-6.2,24.8-9.5c22.7-10.8,37.4-24.1,44.9-38c5.4-10,7.1-20.4,5.3-30.3c-1.8-10-7.1-19.6-15.5-28
				c-13.3-13.3-34.4-23.7-62.1-27.9l-6.1-0.9l2.1-5.8c6.2-17,12-36.4,11.4-53.9c-0.6-16.6-7.2-31.6-25.5-40.9
				c-11-5.6-22.7-6.7-35.8-7.9c-1.1-0.1-2.3-0.2-3.5-0.3l-6-0.6l1.6-5.8c5.1-18.2,9.3-34.9,7.2-49c-1.9-13.4-9.8-24.9-28.9-33.9
				c-5.3-2.5-10.6-4.4-16.2-5.9c-5.7-1.5-11.7-2.7-18-3.6l-3.6-0.5l-0.6-3.6c-0.3-1.7,1.5-14.3,3.3-26c1.2-8.5,2.4-16.5,2.6-18.8
				l0.1-1.4c1.6-16.6,3.7-37.7,2-56.6c-2.5-27.1-13.2-49.8-46.2-46.8c-8.5,0.8-17.6,3.5-26.4,7c-9,3.6-17.7,7.9-25.1,11.7
				c-18.7,9.7-31.1,18.3-45.4,28.1c-4.5,3.1-9.2,6.3-15.1,10.2l-44.3,34.1c-1.2,0.9-3,2.4-4.8,3.8c-10,8.1-20.5,16.6-34.9,15.3
				c-30.2-2.7-63-19-101.5-38.1c-52.4-26-115.5-57.4-195.6-65.7c-13.6-1.4-34.4-3-59.6-2.6c-25.2,0.4-54.7,2.7-85.9,9.2
				c-8.6,1.8-17.3,4-26.1,6.6c-8.8,2.6-17.6,5.5-26.7,8.8c-7,2.5-13.5,5.4-19.9,8.4c-6.4,3-12.6,6.3-18.8,9.7
				c-5.4,3-10.8,6-16.1,9.3c-5.3,3.2-10.4,6.7-15.2,10.4c-7.5,5.9-14.6,11.8-21.3,18.1c-6.6,6.3-13,13-19,20.2
				c-3.7,4.5-10.4,13.7-16,22.3c-4,6.2-7.4,12.1-8.6,15.7l0,0.1l-0.1,0.2l0,0l-0.1,0.2l-1.5,4l-4.2-0.8
				C-194.6,275.9-195.2,275.8-195.8,275.7z"/>
		</g>
		<g id="XMLID_978_">
			<g id="XMLID_979_">
				<defs>
					<path id="XMLID_986_" d="M78.7,298.3C54.2,470-25,535.9-59.6,580.7c26.9-5.4,82.1-41.1,128.1-110
						c44.5-66.8,62.8-155.8,54.8-206.9C118.3,232.5,91.2,211,78.7,298.3z"/>
				</defs>
				<clipPath id="XMLID_5_">
					<use xlink:href="#XMLID_986_"  style="overflow:visible;"/>
				</clipPath>
				<polygon id="XMLID_1009_" class="st109" points="120.1,570.5 102.3,587.8 119.3,588.5 				"/>
				<polygon id="XMLID_1008_" class="st110" points="121.2,545.1 78.2,586.7 102.3,587.8 120.1,570.5 				"/>
				<polygon id="XMLID_1007_" class="st111" points="122.3,519.6 54.2,585.7 78.2,586.7 121.2,545.1 				"/>
				<polygon id="XMLID_1006_" class="st112" points="123.4,494.2 30.2,584.6 54.2,585.7 122.3,519.6 				"/>
				<polygon id="XMLID_1005_" class="st112" points="124.5,468.7 6.2,583.6 30.2,584.6 123.4,494.2 				"/>
				<polygon id="XMLID_1004_" class="st113" points="125.7,443.3 -17.8,582.5 6.2,583.6 124.5,468.7 				"/>
				<polygon id="XMLID_1003_" class="st114" points="126.8,417.8 -41.9,581.5 -17.8,582.5 125.7,443.3 				"/>
				<polygon id="XMLID_1002_" class="st115" points="127.9,392.4 -59.3,574.1 -59.6,580.7 -41.9,581.5 126.8,417.8 				"/>
				<polygon id="XMLID_1001_" class="st116" points="129,366.9 -58.2,548.6 -59.3,574.1 127.9,392.4 				"/>
				<polygon id="XMLID_1000_" class="st117" points="130.1,341.5 -57.1,523.2 -58.2,548.6 129,366.9 				"/>
				<polygon id="XMLID_999_" class="st118" points="131.2,316 -56,497.7 -57.1,523.2 130.1,341.5 				"/>
				<polygon id="XMLID_998_" class="st119" points="132.4,290.6 -54.9,472.3 -56,497.7 131.2,316 				"/>
				<polygon id="XMLID_997_" class="st119" points="133.5,265.1 -53.8,446.8 -54.9,472.3 132.4,290.6 				"/>
				<polygon id="XMLID_996_" class="st120" points="134.6,239.7 -52.7,421.4 -53.8,446.8 133.5,265.1 				"/>
				<polygon id="XMLID_995_" class="st121" points="135.1,227.1 129,220.7 -51.5,395.9 -52.7,421.4 134.6,239.7 				"/>
				<polygon id="XMLID_994_" class="st122" points="129,220.7 120.8,212.3 113,211.9 -50.4,370.5 -51.5,395.9 				"/>
				<polygon id="XMLID_993_" class="st123" points="88.9,210.9 -49.3,345 -50.4,370.5 113,211.9 				"/>
				<polygon id="XMLID_992_" class="st123" points="64.9,209.8 -48.2,319.6 -49.3,345 88.9,210.9 				"/>
				<polygon id="XMLID_991_" class="st124" points="40.9,208.8 -47.1,294.1 -48.2,319.6 64.9,209.8 				"/>
				<polygon id="XMLID_990_" class="st125" points="16.9,207.7 -46,268.7 -47.1,294.1 40.9,208.8 				"/>
				<polygon id="XMLID_989_" class="st126" points="-7.1,206.7 -44.8,243.2 -46,268.7 16.9,207.7 				"/>
				<polygon id="XMLID_988_" class="st127" points="-31.2,205.6 -43.7,217.8 -44.8,243.2 -7.1,206.7 				"/>
				<polygon id="XMLID_987_" class="st128" points="-43.7,217.8 -31.2,205.6 -43.2,205.1 				"/>
			</g>
		</g>
		<g id="XMLID_975_">
			<path id="XMLID_976_" class="st95" d="M-22.1,296.7c10-21,6.8-48.8-21.7-67.2c-27.4-17.6-68.4,9.5-72.7,41.4
				c18.7-15.9,44.8-22.8,64.9-9.9C-35.9,271.2-26.5,283.7-22.1,296.7z"/>
		</g>
		<g id="XMLID_916_">
			<g id="XMLID_917_">
				<defs>
					<path id="XMLID_918_" d="M134.1,593.1c-0.7-0.2-1.4-0.5-2-0.7c-15.9-5.8-34.4-19.7-47-37.7c-11.1-15.7-17.6-34.6-14-53.9
						c4.3,19.8,18.7,58.9,80.1,73.7c4,1,6.4,4.1,7,7.5l0,0c0.3,1.6,0.2,3.3-0.4,5c-0.5,1.6-1.4,3.2-2.8,4.4
						C151.4,594.9,144.5,596.5,134.1,593.1z"/>
				</defs>
				<clipPath id="XMLID_6_">
					<use xlink:href="#XMLID_918_"  style="overflow:visible;"/>
				</clipPath>
				<polygon id="XMLID_959_" class="st129" points="158.1,593.5 154.5,597 157.9,597.1 				"/>
				<polygon id="XMLID_958_" class="st130" points="158.3,588.8 150.1,596.8 154.5,597 158.1,593.5 				"/>
				<polygon id="XMLID_957_" class="st131" points="158.5,584 145.6,596.6 150.1,596.8 158.3,588.8 				"/>
				<polygon id="XMLID_956_" class="st132" points="158.7,579.3 141.1,596.4 145.6,596.6 158.5,584 				"/>
				<polygon id="XMLID_955_" class="st133" points="158.9,574.6 136.6,596.2 141.1,596.4 158.7,579.3 				"/>
				<polygon id="XMLID_954_" class="st134" points="159.1,569.8 132.2,596 136.6,596.2 158.9,574.6 				"/>
				<polygon id="XMLID_953_" class="st135" points="159.3,565.1 127.7,595.8 132.2,596 159.1,569.8 				"/>
				<polygon id="XMLID_952_" class="st136" points="159.5,560.4 123.2,595.6 127.7,595.8 159.3,565.1 				"/>
				<polygon id="XMLID_951_" class="st137" points="159.7,557.2 158.9,556.4 118.8,595.4 123.2,595.6 159.5,560.4 				"/>
				<polygon id="XMLID_950_" class="st138" points="158.9,556.4 156.6,554.1 114.3,595.2 118.8,595.4 				"/>
				<polygon id="XMLID_949_" class="st139" points="156.6,554.1 154.4,551.8 109.8,595 114.3,595.2 				"/>
				<polygon id="XMLID_948_" class="st140" points="154.4,551.8 152.1,549.4 105.3,594.8 109.8,595 				"/>
				<polygon id="XMLID_947_" class="st140" points="152.1,549.4 149.8,547.1 100.9,594.6 105.3,594.8 				"/>
				<polygon id="XMLID_946_" class="st141" points="149.8,547.1 147.6,544.8 96.5,594.3 96.7,594.4 100.9,594.6 				"/>
				
					<rect id="XMLID_945_" x="119.3" y="532.8" transform="matrix(0.6965 0.7176 -0.7176 0.6965 444.5426 85.7388)" class="st142" width="3.3" height="71.1"/>
				
					<rect id="XMLID_944_" x="117" y="530.5" transform="matrix(0.6965 0.7176 -0.7176 0.6965 442.1793 86.6563)" class="st143" width="3.3" height="71.1"/>
				
					<rect id="XMLID_943_" x="114.8" y="528.1" transform="matrix(0.6965 0.7176 -0.7176 0.6965 439.8158 87.5738)" class="st144" width="3.3" height="71.1"/>
				
					<rect id="XMLID_942_" x="112.5" y="525.8" transform="matrix(0.6965 0.7176 -0.7176 0.6965 437.4525 88.4913)" class="st145" width="3.3" height="71.1"/>
				
					<rect id="XMLID_941_" x="110.2" y="523.5" transform="matrix(0.6965 0.7176 -0.7176 0.6965 435.0891 89.4088)" class="st146" width="3.3" height="71.1"/>
				
					<rect id="XMLID_940_" x="108" y="521.1" transform="matrix(0.6965 0.7176 -0.7176 0.6965 432.7257 90.3263)" class="st147" width="3.3" height="71.1"/>
				
					<rect id="XMLID_939_" x="105.7" y="518.8" transform="matrix(0.6965 0.7176 -0.7176 0.6965 430.3627 91.244)" class="st147" width="3.3" height="71.1"/>
				
					<rect id="XMLID_938_" x="103.4" y="516.5" transform="matrix(0.6965 0.7176 -0.7176 0.6965 427.9985 92.161)" class="st148" width="3.3" height="71.1"/>
				
					<rect id="XMLID_937_" x="101.2" y="514.1" transform="matrix(0.6965 0.7176 -0.7176 0.6965 425.6355 93.0788)" class="st149" width="3.3" height="71.1"/>
				
					<rect id="XMLID_936_" x="98.9" y="511.8" transform="matrix(0.6965 0.7176 -0.7176 0.6965 423.2721 93.9963)" class="st150" width="3.3" height="71.1"/>
				
					<rect id="XMLID_935_" x="96.6" y="509.5" transform="matrix(0.6965 0.7176 -0.7176 0.6965 420.9091 94.914)" class="st151" width="3.3" height="71.1"/>
				
					<rect id="XMLID_934_" x="94.4" y="507.1" transform="matrix(0.6965 0.7176 -0.7176 0.6965 418.545 95.831)" class="st151" width="3.3" height="71.1"/>
				
					<rect id="XMLID_933_" x="92.1" y="504.8" transform="matrix(0.6965 0.7176 -0.7176 0.6965 416.182 96.7488)" class="st152" width="3.3" height="71.1"/>
				<polygon id="XMLID_932_" class="st153" points="118.1,514.4 115.8,512.1 65.7,560.7 65.6,562.4 67.1,563.9 				"/>
				<polygon id="XMLID_931_" class="st154" points="115.8,512.1 113.6,509.7 65.9,556 65.7,560.7 				"/>
				<polygon id="XMLID_930_" class="st155" points="113.6,509.7 111.3,507.4 66.1,551.3 65.9,556 				"/>
				<polygon id="XMLID_929_" class="st156" points="111.3,507.4 109,505.1 66.3,546.5 66.1,551.3 				"/>
				<polygon id="XMLID_928_" class="st157" points="109,505.1 106.8,502.7 66.5,541.8 66.3,546.5 				"/>
				<polygon id="XMLID_927_" class="st158" points="106.8,502.7 106.4,502.3 102.7,502.2 66.7,537 66.5,541.8 				"/>
				<polygon id="XMLID_926_" class="st158" points="98.2,502 66.9,532.3 66.7,537 102.7,502.2 				"/>
				<polygon id="XMLID_925_" class="st159" points="93.7,501.8 67.2,527.6 66.9,532.3 98.2,502 				"/>
				<polygon id="XMLID_924_" class="st160" points="89.3,501.6 67.4,522.8 67.2,527.6 93.7,501.8 				"/>
				<polygon id="XMLID_923_" class="st161" points="84.8,501.4 67.6,518.1 67.4,522.8 89.3,501.6 				"/>
				<polygon id="XMLID_922_" class="st161" points="80.3,501.2 67.8,513.4 67.6,518.1 84.8,501.4 				"/>
				<polygon id="XMLID_921_" class="st162" points="75.8,501 68,508.6 67.8,513.4 80.3,501.2 				"/>
				<polygon id="XMLID_920_" class="st163" points="71.4,500.8 68.2,503.9 68,508.6 75.8,501 				"/>
				<polygon id="XMLID_919_" class="st164" points="68.2,503.9 71.4,500.8 68.3,500.7 				"/>
			</g>
		</g>
		<g id="XMLID_892_">
			<g id="XMLID_893_">
				<defs>
					<path id="XMLID_894_" d="M152,546.8c-0.6,0-1.2,0-1.7-0.1c-14-0.8-31.9-7.3-46.2-18.4c-12.5-9.8-22.3-23.1-24.1-39.2
						c8.2,14.6,28.9,42,81,38.9c3.4-0.2,6.1,1.7,7.3,4.3l0,0c0.6,1.2,0.9,2.6,0.9,4c0,1.4-0.4,2.8-1.1,4.2
						C166.1,544.1,161.1,547,152,546.8z"/>
				</defs>
				<clipPath id="XMLID_7_">
					<use xlink:href="#XMLID_894_"  style="overflow:visible;"/>
				</clipPath>
				<polygon id="XMLID_915_" class="st165" points="169.2,541 162.7,547.3 168.9,547.6 				"/>
				<polygon id="XMLID_914_" class="st166" points="169.5,533.6 155.6,547 162.7,547.3 169.2,541 				"/>
				<polygon id="XMLID_913_" class="st167" points="169.8,526.1 148.6,546.7 155.6,547 169.5,533.6 				"/>
				<polygon id="XMLID_912_" class="st168" points="170.2,518.6 141.5,546.4 148.6,546.7 169.8,526.1 				"/>
				<polygon id="XMLID_911_" class="st169" points="170.5,511.1 134.5,546.1 141.5,546.4 170.2,518.6 				"/>
				<polygon id="XMLID_910_" class="st170" points="170.5,510.4 167.3,507.1 127.4,545.8 134.5,546.1 170.5,511.1 				"/>
				<polygon id="XMLID_909_" class="st171" points="167.3,507.1 163.7,503.4 120.3,545.5 127.4,545.8 				"/>
				<polygon id="XMLID_908_" class="st172" points="163.7,503.4 160.1,499.7 113.3,545.2 120.3,545.5 				"/>
				<polygon id="XMLID_907_" class="st172" points="160.1,499.7 156.6,496 106.2,544.9 113.3,545.2 				"/>
				<polygon id="XMLID_906_" class="st173" points="156.6,496 153.1,492.4 152.9,492.4 99.2,544.6 106.2,544.9 				"/>
				<polygon id="XMLID_905_" class="st174" points="145.8,492.1 93.3,543.1 94.5,544.3 99.2,544.6 152.9,492.4 				"/>
				<polygon id="XMLID_904_" class="st175" points="138.8,491.8 89.7,539.4 93.3,543.1 145.8,492.1 				"/>
				<polygon id="XMLID_903_" class="st176" points="131.7,491.5 86.1,535.7 89.7,539.4 138.8,491.8 				"/>
				<polygon id="XMLID_902_" class="st176" points="124.7,491.2 82.5,532.1 86.1,535.7 131.7,491.5 				"/>
				<polygon id="XMLID_901_" class="st177" points="117.6,490.9 79,528.4 82.5,532.1 124.7,491.2 				"/>
				<polygon id="XMLID_900_" class="st178" points="110.5,490.5 78.7,521.5 78.4,527.8 79,528.4 117.6,490.9 				"/>
				<polygon id="XMLID_899_" class="st179" points="103.5,490.2 79,514 78.7,521.5 110.5,490.5 				"/>
				<polygon id="XMLID_898_" class="st180" points="96.4,489.9 79.3,506.5 79,514 103.5,490.2 				"/>
				<polygon id="XMLID_897_" class="st181" points="89.4,489.6 79.7,499 79.3,506.5 96.4,489.9 				"/>
				<polygon id="XMLID_896_" class="st182" points="82.3,489.3 80,491.6 79.7,499 89.4,489.6 				"/>
				<polygon id="XMLID_895_" class="st183" points="80,491.6 82.3,489.3 80.1,489.2 				"/>
			</g>
		</g>
		<g id="XMLID_890_">
			<path id="XMLID_891_" class="st95" d="M651.6,283.4c-0.9,0.9-1.7,1.8-2.4,2.5c-20.5,20.4-56.9,42.8-96.8,56.9
				c-34.9,12.3-72.5,18.1-104.2,10.3c37.7-2.7,116-15.7,181.7-95.5c4.3-5.2,11.3-7.9,17.8-8.2l0,0c3-0.1,6,0.3,8.6,1.3
				c2.5,1,4.7,2.4,6,4.4C666,260.6,664.3,270,651.6,283.4z"/>
		</g>
		<g id="XMLID_888_">
			<path id="XMLID_889_" class="st95" d="M690.8,415.3c-1,0.5-2,0.9-2.9,1.3c-24,10.6-62.1,17.9-100.5,16.9
				c-33.6-0.8-67.3-8.1-91.7-25c32.9,9.9,103.4,24.2,184.9-22.2c5.4-3,12.2-3.1,17.7-1.2l0,0c2.6,0.9,5,2.2,6.8,3.9
				c1.8,1.6,3.2,3.6,3.7,5.7C710.4,400.6,705.9,408,690.8,415.3z"/>
		</g>
		<g id="XMLID_886_">
			<path id="XMLID_887_" class="st95" d="M726.1,510.6c-1,0.3-2,0.6-2.9,0.9c-23.8,6.7-60.3,8.4-96,2.3
				c-31.2-5.3-61.7-16.5-82.2-35.6c29.3,13.7,93.3,36.4,175.5,4.1c5.4-2.1,11.8-1.2,16.7,1.3l0,0c2.3,1.2,4.4,2.7,5.9,4.5
				c1.5,1.8,2.5,3.8,2.7,5.8C746.4,499.5,741.2,505.9,726.1,510.6z"/>
		</g>
		<g id="XMLID_884_">
			<path id="XMLID_885_" class="st95" d="M209.8,306.8c20,1.1,37-17.4,32.2-38.1c-4.6-19.5-28.3-38.6-47.9-38.2
				c0.4,0.3,0.7,0.6,1.1,0.9c15.6,7.7,26.7,23,29.6,38.3C227.7,284.6,221.3,300.9,209.8,306.8z"/>
		</g>
		<g id="XMLID_882_">
			<path id="XMLID_883_" class="st95" d="M181.6,390.5c23.1,7.2,54.6-4.9,61.7-25.8c6.6-19.7-9.8-44.8-33.2-50.3
				c0.3,0.4,0.5,0.8,0.8,1.2c13.7,12,17.5,29.6,11.6,44.9C216.5,375.3,198.9,388.5,181.6,390.5z"/>
		</g>
		<g id="XMLID_867_">
			<path id="XMLID_881_" class="st95" d="M117.6,448.9c12.2,17,42.1,22.3,59.7,8.6c16.5-12.9,19.8-41.4,6.3-57.2
				c0,0.4-0.1,0.9-0.1,1.3c2.7,16.4-5.2,32.7-18.5,42.3C151.8,453.3,131.2,455.6,117.6,448.9z"/>
		</g>
		<g id="XMLID_243_">
			<path id="XMLID_866_" class="st95" d="M207.1,444c17.7,11.1,47.4,4.8,58.5-14.5c10.5-18.2,2.7-45.8-15.7-55.4
				c0.1,0.4,0.3,0.8,0.4,1.3c8.6,14.2,7.5,32.2-1.2,46.2C240.5,435.2,222.3,445.1,207.1,444z"/>
		</g>
		<g id="XMLID_129_">
			<path id="XMLID_130_" class="st95" d="M250.3,369.3c20.6,4,45.9-12.7,49.3-34.7c3.2-20.7-14-43.6-34.7-45.9
				c0.3,0.3,0.5,0.7,0.8,1.1c13.2,10.1,18.7,27.3,15.5,43.5C278.1,349,264.8,364.7,250.3,369.3z"/>
		</g>
		<g id="XMLID_113_">
			<path id="XMLID_126_" class="st95" d="M275.3,423.2c23.1,6.9,54.6-5.7,61.3-26.6c6.4-19.8-10.4-44.6-33.9-49.9
				c0.3,0.4,0.5,0.8,0.8,1.1c13.9,11.8,17.9,29.4,12.2,44.7C310,407.5,292.6,420.9,275.3,423.2z"/>
		</g>
		<g id="XMLID_108_">
			<path id="XMLID_112_" class="st95" d="M43.5,514.8c2.3,39.2,73.2,140.3,125.9,98.7c18.4-14.5,10.6-46.6,3-52
				c18.2-12.1,29.5-25.2,27.2-40.4c-4.2-27.5-62.9-36.4-86-29.1c26.7-22.5,91.3-11.6,100.9,23.2c5.7,20.5-10.3,40.6-26.5,50.3
				c9.8,19.8,11.3,47-5.7,63.1C131.7,676,27.4,579.8,43.5,514.8z"/>
		</g>
	</g>
</g>
</svg>
